<?xml version="1.0" encoding="UTF-8" standalone="no"?>
<svg
   version="1.1"
   id="Layer_1"
   x="0px"
   y="0px"
   viewBox="453.9971 -26.0014 1652.0029 1652.0029"
   enable-background="new 453.9971 -26.0014 1652.0029 1652.0029"
   xml:space="preserve"
   sodipodi:docname="PSD_leadership.svg"
   inkscape:version="1.2.2 (b0a8486541, 2022-12-01)"
   inkscape:export-filename="PSD_leadership.svg.png"
   inkscape:export-xdpi="96"
   inkscape:export-ydpi="96"
   xmlns:inkscape="http://www.inkscape.org/namespaces/inkscape"
   xmlns:sodipodi="http://sodipodi.sourceforge.net/DTD/sodipodi-0.dtd"
   xmlns:xlink="http://www.w3.org/1999/xlink"
   xmlns="http://www.w3.org/2000/svg"
   xmlns:svg="http://www.w3.org/2000/svg"><defs
   id="defs4658"><pattern
     inkscape:collect="always"
     xlink:href="#Camouflage"
     id="pattern9655"
     patternTransform="matrix(0.74518632,0,0,0.72488598,591.24549,-2325.3866)" /><pattern
     inkscape:collect="always"
     xlink:href="#Camouflage"
     id="pattern9653"
     patternTransform="matrix(0.74518632,0,0,0.72488598,591.24549,-2325.3866)" /><pattern
     inkscape:collect="always"
     xlink:href="#Camouflage"
     id="pattern9651"
     patternTransform="matrix(0.74518632,0,0,0.72488598,591.24549,-2325.3866)" /><pattern
     inkscape:collect="always"
     xlink:href="#Camouflage"
     id="pattern9649"
     patternTransform="matrix(0.74518632,0,0,0.72488598,591.24549,-2325.3866)" /><pattern
     inkscape:collect="always"
     xlink:href="#Camouflage"
     id="pattern9647"
     patternTransform="matrix(0.74518632,0,0,0.72488598,591.24549,-2325.3866)" /><pattern
     inkscape:collect="always"
     xlink:href="#Camouflage"
     id="pattern9645"
     patternTransform="matrix(0.74518632,0,0,0.72488598,591.24549,-2325.3866)" /><pattern
     inkscape:collect="always"
     xlink:href="#Camouflage"
     id="pattern9643"
     patternTransform="matrix(0.74518632,0,0,0.72488598,591.24549,-2325.3866)" /><pattern
     inkscape:collect="always"
     xlink:href="#Camouflage"
     id="pattern9641"
     patternTransform="matrix(0.74518632,0,0,0.72488598,591.24549,-2325.3866)" /><pattern
     inkscape:collect="always"
     xlink:href="#Camouflage"
     id="pattern9639"
     patternTransform="matrix(0.74518632,0,0,0.72488598,591.24549,-2325.3866)" /><pattern
     inkscape:collect="always"
     xlink:href="#Camouflage"
     id="pattern9637"
     patternTransform="matrix(0.74518632,0,0,0.72488598,591.24549,-2325.3866)" /><pattern
     inkscape:collect="always"
     xlink:href="#Camouflage"
     id="pattern9635"
     patternTransform="matrix(0.74518632,0,0,0.72488598,591.24549,-2325.3866)" /><pattern
     inkscape:collect="always"
     xlink:href="#Camouflage"
     id="pattern9633"
     patternTransform="matrix(0.74518632,0,0,0.72488598,591.24549,-2325.3866)" /><pattern
     inkscape:collect="always"
     patternUnits="userSpaceOnUse"
     width="372"
     height="400"
     patternTransform="translate(0,0) scale(0.2,0.2)"
     id="Camouflage"
     inkscape:stockid="Camouflage"><g
       id="g3410"
       transform="translate(-89,-270)"><path
         style="fill:#344a33;"
         d="M 89,270 L 480,270 L 480,680 L 89,680 L 89,270 z"
         id="rect5504" /><g
         style="fill:#463a28;fill-opacity:1"
         id="g5707"
         transform="matrix(0.5,0,0,0.5,161.785,352.005)"><path
           style="fill:#463a28"
           d="M 600,178.31 C 560.97,190.236 519.231,189.9 479.23,183.581 C 455.918,186.853 438.62,213.05 412.95,203.143 C 384.723,200.460 356.541,204.918 328.406,206.68 C 309.806,190.517 275.53,228.018 306.603,234.354 C 327.210,236.132 348.992,229.341 368.62,238.962 C 383.037,247.894 390.808,258.693 408.529,259.350 C 420.656,274.332 386.675,270.062 378.494,268.502 C 357.207,270.434 385.060,292.401 395.894,290.848 C 424.579,294.517 449.809,275.993 477.405,272.721 C 495.590,279.799 463.282,296.428 453.105,296.250 C 438.778,294.524 418.703,307.58 439.246,316.579 C 457.033,324.061 485.201,315.67 493.525,338.098 C 485.057,361.173 449.064,351.396 431.337,343.369 C 413.333,329.691 390.442,339.22 375.767,353.012 C 362.304,365.825 347.051,376.832 329.963,383.669 C 312.790,403.576 345.997,415.972 357.265,402.870 C 362.161,424.280 326.751,414.476 324.658,431.463 C 341.974,441.266 373.473,430.487 380.502,454.940 C 378.508,479.296 348.435,488.15 329.175,477.225 C 300.598,468.454 269.938,460.273 240.214,468.494 C 224.261,471.401 206.547,476.887 191.786,467.162 C 172.250,457.596 155.905,442.99 138,430.8 C 124.824,404.143 96.097,387.060 66.775,384.893 C 46.983,374.555 15.716,362.529 -2.282,380.956 C -5.629,405.028 31.603,403.219 46.194,414.656 C 67.224,420.952 69.502,454.051 42.915,450.37 C 12.992,451.162 -21.439,452.420 -45.709,431.774 C -57.746,419.467 -61.574,401.735 -71.239,387.695 C -88.819,367.483 -61.456,351.684 -42.526,355.292 C -16.517,355.025 -17.113,321.144 -10.032,303.64 C -25.652,288.652 -40.742,321.498 -56.006,324.403 C -78.301,322.326 -83.577,292.543 -82.521,274.145 C -80.525,250.62 -107.323,242.235 -114.751,221.643 C -125.662,204.223 -139.460,220.004 -131.811,234.932 C -120.793,259.937 -133.284,286.858 -127.928,312.715 C -124.867,334.367 -91.797,344.018 -99.659,368.317 C -111.945,383.164 -125.622,410.580 -150,399.781 C -150,424. -150,448.718 -150,473.18 C -125.302,478.553 -132.230,508.537 -136.682,526.118 C -138.435,548.920 -115.870,560.382 -97.390,566.074 C -79.986,572.020 -63.202,582.322 -55.644,599.777 C -37.724,622.346 -5.898,618.235 19.446,623.426 C 38.438,629.090 57.258,637.088 77.557,634.888 C 128.370,635.236 179.185,634.855 230,635 C 205.840,620.831 176.501,628.467 150.735,620.057 C 174.602,613.037 202.175,628.036 223.812,611.93 C 248.788,599.491 208.494,588.826 196.470,593.890 C 174.716,597.94 151.747,602.937 130.463,593.724 C 109.734,583.381 90.847,567.89 76.969,549.340 C 58.947,527.803 79.814,500.291 105.420,509.858 C 127.255,513.818 153.171,511.947 169.881,529.057 C 154.102,533.042 132.701,517.975 116.702,530.217 C 97.280,546.038 118.157,574.262 136.675,579.629 C 161.105,588.782 187.823,576.764 211.865,587.810 C 236.001,599.167 265.115,595.524 286.270,579.468 C 302.270,568.417 341.076,576.817 350.421,572.420 C 333.300,581.50 328.493,610.228 355.054,600.493 C 381.612,594.843 406.638,583.784 433.093,577. C 452.413,583.091 483.371,598.36 495.980,574.90 C 501.833,555.719 521.524,550.721 534.710,538.651 C 552.058,518.928 517.047,523.810 505.635,523.333 C 486.286,522.775 466.995,521.032 447.75,519.031 C 462.818,495.215 494.296,493.760 519.567,495.617 C 546.589,483.008 582.396,482.543 600,455 C 598.131,432.490 603.727,402.981 597.220,384.820 C 567.631,377.721 602.659,349.517 600,332.297 C 600,280.969 600,229.640 600,178.31 z"
           id="path7788" /><path
           style="fill:#463a28;"
           d="M -74.218,518.06 C -97.532,526.845 -124.316,516.128 -145.992,521.806 C -157.072,543.338 -145.463,569.615 -149.820,593.10 C -151.229,611.617 -155.632,643.9 -127.319,634.913 C -97.561,634.560 -67.597,636.446 -37.975,633.489 C -24.011,634.582 -7.730,614.171 -30.230,612.945 C -58.089,611.719 -54.502,572.239 -26.809,574.076 C -3.761,572.761 19.404,568.607 38.632,555.215 C 54.406,535.664 16.639,537.46 5.606,542.32 C -14.881,542.187 -29.999,552.534 -44.080,565.88 C -59.331,563.486 -73.922,550.934 -92.005,556.885 C -113.452,558.010 -95.924,533.254 -81.630,540.383 C -67.556,534.655 -37.894,553.619 -34.982,532.886 C -41.444,521.257 -61.503,518.496 -74.218,518.06 z"
           id="path5796" /><path
           style="fill:#463a28;"
           d="M -77.873,101.507 C -61.245,117.641 -35.033,101.775 -18.966,106.888 C -35.237,127.785 -1.393,135.40 13.663,126.668 C 34.894,135.65 46.799,108.962 66.603,111.441 C 88.453,118.352 111.506,110.511 133.557,110.931 C 146.552,107.752 177.049,127.459 155.197,134.646 C 137.041,134.209 117.488,127.557 101.063,135.571 C 85.282,153.172 113.748,148.425 123.936,148.060 C 140.630,156.251 158.465,163.670 170.942,144.758 C 186.614,132.311 207.878,136.555 226.074,130.774 C 253.269,131.014 234.168,157.849 216.711,157.163 C 198.764,167.882 177.594,162.934 158.941,169.746 C 132.016,184.951 160.562,207.39 178.167,209.892 C 179.357,231.237 144.387,225.712 129.351,230.21 C 112.394,234.817 82.211,217.187 76.263,240.878 C 74.364,262.691 119.457,261.719 96.662,283.479 C 88.080,299.449 50.228,285.837 65.631,310.924 C 75.750,333.571 38.484,313.147 25.461,318.338 C 13.084,327.758 -11.260,313.710 3.757,300.453 C 11.434,299.004 32.809,302.772 26.839,288.875 C 10.009,286.651 -14.890,301.330 -25.642,281.730 C -18.642,263.900 -43.268,246.97 -27.986,233.262 C -22.287,229.756 -48.133,238.298 -42.827,222.371 C -36.804,205.576 -39.335,190.426 -41.601,174.046 C -34.701,169.194 -17.617,153.507 -37.551,156.061 C -47.733,158.3 -62.292,150.373 -69.392,151.239 C -69.143,139.703 -75.979,120.783 -89.516,134.314 C -114.483,130.598 -92.908,101.2 -77.873,101.507 z"
           id="path7734" /><path
           style="fill:#463a28;"
           d="M 119.843,-1 C 116.556,-137.634 82.136,-140.81 64.585,-150.953 C 42.657,-148.527 33.487,-122.141 11.296,-119.480 C -14.956,-116.940 8.724,-83.186 -17.272,-79.091 C -56.271,-65.964 -100.879,-67.422 -135.573,-42.601 C -153.881,-26.024 -143.982,0.661 -141.751,21.550 C -139.412,45.169 -104.870,34.373 -105.628,58.104 C -99.882,87.281 -68.317,57.858 -53.203,52.771 C -31.034,41.210 -11.896,68.353 10.154,60.876 C 22.041,48.348 39.710,45.854 56.278,45.240 C 74.791,44.990 88.864,30.990 107.722,32.386 C 139.310,29.879 171.071,32.348 202.605,30.205 C 222.380,27.043 242.209,24.338 262.163,22.913 C 283.344,19.446 304.971,9.012 326.555,15.928 C 343.027,36.999 366.296,17.733 374.887,0.832 C 395.270,-11.985 420.435,-10.365 443.402,-13.363 C 463.417,-11.221 493.073,-9.726 498.820,-34.799 C 499.965,-55.190 474.411,-61.506 458.112,-61.252 C 432.280,-55.690 406.923,-44.314 379.859,-46.245 C 366.366,-42.028 332.931,-23.175 332.146,-47.095 C 340.849,-53.140 360.005,-71.805 336.974,-71.342 C 312.874,-71.978 288.314,-52.549 265.031,-66.281 C 256.299,-89.716 287.554,-98.793 305.299,-98.953 C 330.803,-102.261 356.292,-97.825 381.048,-92.039 C 398.272,-93.695 428.282,-82.086 438.577,-95.697 C 432.712,-113.674 417.972,-119.830 401.585,-126.651 C 390.598,-136.203 361.634,-122.216 362.391,-146.599 C 376.520,-165.216 341.318,-156.437 331.042,-152.221 C 315.827,-145.266 299.206,-144.548 283.122,-142.637 C 259.176,-143.957 249.187,-174.257 223.052,-1 C 188.649,-1 154.246,-1 119.843,-1 z M 107.125,-108.5 C 128.383,-98.019 149.698,-87.606 171.601,-78.527 C 189.186,-73.970 221.496,-93.304 228.634,-72.459 C 215.601,-56.322 190.578,-71.098 172.445,-67.078 C 149.711,-65.477 123.370,-58.850 104.074,-75.051 C 92.331,-81.647 51.714,-77.224 65.846,-98.560 C 79.069,-104.077 95.620,-98.359 107.125,-108.5 z"
           id="rect8003" /><path
           style="fill:#463a28;"
           d="M -150,-1 C -150,-134.446 -150,-103.893 -150,-73.340 C -140.617,-68.983 -119.386,-66.831 -133.939,-81.861 C -146.584,-107.449 -107.838,-92.756 -99.971,-110.812 C -80.328,-132.78 -125.557,-128.479 -121.460,-151.42 C -117.123,-175.278 -85.779,-157.045 -69.257,-162.198 C -60.864,-162.377 -40.952,-165.987 -60.241,-165.042 C -90.159,-164.916 -120.080,-165.046 -150,-1 z"
           id="path5784" /><path
           style="fill:#463a28;fill-opacity:1;fill-rule:evenodd;stroke:none;stroke-width:2;stroke-linecap:round;stroke-linejoin:round;marker:none;marker-start:none;marker-mid:none;marker-end:none;stroke-miterlimit:4;stroke-dasharray:none;stroke-dashoffset:0;stroke-opacity:1;visibility:visible;display:inline;overflow:visible;enable-background:accumulate"
           d="M 473.656,509.156 C 452.234,504.277 441.387,551.97 468.796,538.902 C 490.088,528.916 469.817,571.564 493.359,560.897 C 504.024,567.417 538.462,558.658 517.053,575.909 C 503.234,582.520 508.456,593.847 514.496,602.529 C 510.232,616.211 501.017,641.753 526.025,635 C 550.683,635 575.341,635 600,635 C 600,598.177 600,561.354 600,524.531 C 583.610,540.604 555.550,533.912 536.555,537.104 C 524.205,532.170 531.392,516.638 531.498,513.096 C 510.741,511.891 492.699,524.018 473.656,509.156 z"
           id="path5798" /><path
           style="fill:#463a28;"
           d="M 510,-1 C 507.765,-149.145 537.198,-169.760 521.773,-156.735 C 509.530,-141.80 534.936,-126.48 526.170,-110.745 C 535.759,-86.341 574.941,-114.840 580.160,-97.956 C 570.192,-90.967 533.398,-90.853 556.435,-73.165 C 570.230,-73.551 587.408,-72.641 598.802,-76.813 C 603.207,-95.887 597.254,-116.108 600.019,-135.693 C 603.625,-153.054 599.552,-171.961 578.115,-1 C 555.410,-1 532.705,-1 510,-1 z"
           id="path3395" /><path
           style="fill:#463a28;"
           d="M 297.218,609.281 C 273.460,616.16 245.099,607.606 224.733,624.859 C 213.115,642.376 249.131,636.399 258.093,631.305 C 277.004,620.102 298.754,616.212 320.476,617.711 C 335.240,616.788 337.511,610.244 321.564,611.424 C 313.436,610.909 305.261,610.666 297.218,609.281 z"
           id="path5822" /><path
           style="fill:#463a28;"
           d="M -126.656,154.81 C -137.651,170.980 -158.192,184.029 -150,206.627 C -150,252.751 -150,298.875 -150,345 C -142.652,328.6 -127.352,305.181 -107.988,321.931 C -82.305,327.845 -77.109,291.184 -85.353,274.07 C -96.521,258.54 -116.604,286.214 -119.612,262.303 C -129.445,242.23 -130.482,220.834 -121.032,200.456 C -119.582,186.121 -97.174,152.998 -126.656,154.81 z M -150,385 C -150,410.083 -150,435.166 -150,460. C -135.228,443.436 -139.871,419.809 -133.972,400.025 C -131.703,390.185 -140.503,382.296 -150,385 z"
           id="path5872" /></g><g
         style="fill:#758949;fill-opacity:1"
         id="g5530"
         transform="matrix(0.5,0,0,0.5,161.785,352.005)"><path
           style="fill:#758949;"
           d="M -19.092,152.663 C -0.336,165.154 -44.495,173.82 -22.905,182.657 C -18.543,203.392 -55.957,201.559 -44.511,225.005 C -39.954,238.057 -60.169,248.53 -56.909,229.876 C -54.108,217.223 -58.600,202.326 -73.928,208.118 C -89.423,197.340 -51.695,192.141 -64.568,177.550 C -70.646,150.414 -39.259,153.91 -22.517,154.630 L -19.092,152.663 L -19.092,152.663 z"
           id="path7689" /><path
           style="fill:#758949;"
           d="M 233.782,202.069 C 212.165,215.215 251.363,241.045 228.203,248.174 C 216.084,262.584 197.512,272.265 181.504,258.722 C 166.306,253.675 158.151,286.797 173.605,270.658 C 187.546,263.531 197.630,287.677 178.147,284.195 C 152.858,293.417 187.317,304.915 198.171,295.591 C 222.204,290.740 214.910,317.192 210.320,329.770 C 226.071,327.954 237.467,305.507 255.759,301.380 C 272.512,302.120 241.691,291.452 238.658,291.396 C 231.708,281.968 211.890,280.530 228.799,270.141 C 241.557,253.974 263.959,244.392 283.670,248.937 C 307.010,259.22 306.336,290.76 287.321,305.101 C 275.751,324.097 301.617,317.866 306.139,305.330 C 313.269,295.780 319.991,293.767 321.832,307.153 C 328.474,315.898 343.140,299.239 334.218,313.064 C 343.564,330.863 365.600,294.385 355.932,281.417 C 335.827,263.687 377.040,269.185 373.147,254.758 C 355.214,239.308 329.890,254.377 312.623,257.325 C 303.211,240.040 290.434,225.805 269.487,228.434 C 253.320,225.850 240.032,216.376 233.782,202.069 z"
           id="path7371" /><path
           style="fill:#758949;"
           d="M -130,-165 C -146.497,-154.421 -111.929,-144.56 -116.154,-130.844 C -106.837,-127.738 -105.619,-157.368 -93.415,-141.701 C -92.028,-125.613 -124.299,-103.209 -96.213,-92.855 C -71.406,-90.775 -92.001,-126.698 -70.547,-124.698 C -48.241,-125.914 -96.932,-142.021 -76.377,-155.530 C -56.893,-158.324 -51.410,-131.611 -35.806,-126.653 C -16.916,-131.918 -55.218,-163.601 -27.063,-154.425 C -2.890,-146.007 17.057,-129.190 39.176,-116.894 C 40.828,-101.311 15.033,-93.682 13.535,-75.677 C -0.378,-55.259 31.471,-32.696 45.974,-49.748 C 60.624,-69.816 14.547,-63.868 33.181,-81.896 C 45.279,-99.115 64.649,-103.932 83.254,-110.523 C 95.273,-125.338 123.044,-137.032 134.741,-115.232 C 132.972,-91.529 161.875,-99.012 158.794,-119.174 C 159.876,-142.26 119.587,-129.296 123.977,-151.367 C 142.397,-170.599 102.674,-166.12 101.607,-163.014 C 114.787,-137.921 71.243,-145.883 57.367,-143.840 C 36.664,-144.791 -2.221,-141.174 -8.202,-163.7 C 10.582,-166.931 -21.788,-163.9 -28.437,-165 C -62.291,-165 -96.145,-165 -130,-165 z"
           id="path8024" /><path
           style="fill:#758949;"
           d="M 80.180,-53.140 C 56.900,-52.662 89.138,-31.342 99.278,-34.180 C 122.695,-29.031 145.247,-45.948 168.535,-38.850 C 186.050,-14.683 148.370,-10.383 133.396,-6.339 C 116.031,0.591 112.889,23.829 134.592,24.996 C 135.046,35.775 104.864,26.141 93.677,32.376 C 38.303,40.303 -18.369,41.542 -73.682,32.866 C -97.562,31.831 -123.660,45.595 -130.480,69.639 C -113.540,88.374 -88.665,64.747 -69.062,62.697 C -43.559,53.796 -17.618,64.805 4.823,76.600 C 24.493,85.249 46.587,90.598 68.023,86.259 C 89.548,90.484 106.942,57.041 127.416,72.700 C 123.301,103.634 177.876,71.627 171.783,106.819 C 170.418,134.092 132.041,130.404 126.886,154.059 C 126.564,179.769 158.650,187.075 178.860,186.680 C 198.986,179.982 183.582,152.17 203.066,141.92 C 215.750,130.298 231.005,120.20 247.654,115.737 C 269.912,113.679 284.047,143.49 306.963,134.030 C 318.786,136.867 329.086,132.320 316.097,122.62 C 303.680,100.913 279.415,95.542 257.066,92.728 C 243.720,93.656 207.006,77.408 234.473,68.069 C 256.968,62.338 277.178,77.229 296.535,85.874 C 321.830,88.892 310.681,57.703 308.688,43.767 C 299.163,20.644 271.759,28.617 252.560,29.583 C 242.307,32.841 223.412,25.117 240.438,17.169 C 247.469,-3.014 201.522,6.149 215.980,-13.696 C 232.971,-27.984 257.284,-32.22 278.739,-28.691 C 295.008,-22.015 253.843,-1.598 280.725,-3.239 C 303.384,-7.501 326.577,-10.184 349.306,-5.881 C 363.001,-4.568 369.729,-23.494 351.428,-21.061 C 329.114,-15.869 301.776,-7.311 287.447,-31.455 C 266.756,-42.578 241.953,-29.973 220.607,-38.314 C 203.587,-45.622 230.866,-69.353 208.095,-60.375 C 188.176,-54.085 167.423,-55.103 146.981,-57.487 C 128.546,-59.556 109.670,-59.219 91.876,-53.596 C 88.021,-52.967 84.073,-52.601 80.180,-53.140 z"
           id="rect5572" /><path
           style="fill:#758949;"
           d="M 512.876,-62.711 C 540.679,-53.738 506.599,-23.828 488.541,-31.107 C 464.951,-28.723 440.378,-29.361 417.860,-24.858 C 399.324,-29.592 415.081,-41.282 426.286,-35.644 C 447.544,-37.616 468.492,-43.816 488.623,-50.619 C 496.805,-54.453 504.426,-59.442 512.876,-62.711 z"
           id="path5592" /><path
           style="fill:#758949;"
           d="M 451.001,-1.461 C 468.726,-0.840 461.653,26.563 466.651,33.645 C 440.211,40.460 480.446,55.015 478.446,33.704 C 469.630,18.486 488.076,21.671 488.649,34.861 C 501.909,41.444 521.233,44.311 536.671,53.170 C 549.653,68.129 520.183,89.230 512.178,103.759 C 496.897,110.255 479.090,134.667 505.043,140.112 C 513.160,142.650 534.585,164.06 513.400,153.396 C 493.096,147.189 475.071,131.345 453.169,133.204 C 436.762,138.61 398.134,129.671 423.385,110.110 C 430.946,105.76 458.160,91.780 436.083,89.728 C 420.126,97.581 403.326,80.553 423.550,71.954 C 434.306,69.172 470.866,67.501 454.313,50.572 C 445.784,48.466 418.500,43.825 441.341,38.155 C 452.561,26.652 419.249,0.098 451.001,-1.461 z"
           id="path5007" /><path
           style="fill:#758949;"
           d="M 120.750,286.171 C 95.028,279.495 71.769,297.18 51.206,309.947 C 35.800,326.947 7.625,339.422 -8.827,316.962 C -29.141,299.556 -58.821,323.637 -39.107,345.140 C -28.354,366.769 -3.695,371.322 13.216,386.158 C 29.069,397.511 48.529,384.460 65.904,391.702 C 92.546,397.365 109.087,423.019 114.132,448.215 C 116.592,470.547 134.874,469.710 150.046,460.218 C 165.384,461.610 176.739,476.346 192.194,480.406 C 206.600,486.078 225.071,491.646 239.137,483.120 C 252.957,467.143 198.093,455.840 228.878,455.984 C 250.782,455.775 272.424,461.84 294.358,459.633 C 310.460,437.525 276.753,415.776 257.095,428.803 C 235.117,436.219 209.734,435.850 191.901,419.574 C 174.240,414.639 157.613,394.55 180.200,385.132 C 175.730,357.879 144.842,376.758 127.838,370.299 C 110.594,367.219 75.422,347.013 104.391,332.559 C 113.581,322.981 140.066,349.011 131.848,326.882 C 127.762,310.403 94.619,329.441 100.705,311.855 C 112.458,298.604 137.616,328.81 141.168,310.94 C 136.582,303.309 104.502,300.13 116.585,292.76 C 121.002,292.822 128.260,290.432 120.750,286.171 z"
           id="path7658" /><path
           style="fill:#758949;"
           d="M 562.095,205.850 C 573.784,200.524 605.253,210.77 580.048,219.99 C 562.632,226.276 531.034,224.833 522.783,236.940 C 532.805,257.104 504.185,266.119 490.345,257.813 C 481.847,265.491 457.320,273.067 467.437,252.59 C 479.464,245.02 513.436,239.577 490.560,222.884 C 502.985,210.705 523.137,218.586 538.101,210.887 C 546.004,208.804 553.971,206.857 562.095,205.850 z"
           id="path7828" /><path
           style="fill:#758949;"
           d="M 473.938,414.663 C 501.010,421.925 445.051,444.214 469.783,436.782 C 481.931,439.690 488.672,451.514 500.505,440.17 C 519.854,432.389 541.157,440.217 558.634,427.959 C 570.709,426.51 567.747,443.33 574.535,449.934 C 569.059,472.078 541.022,468.421 523.535,472.904 C 497.113,478.137 470.403,482.785 444.297,489.084 C 428.588,496. 436.671,519.826 453.422,508.08 C 475.113,501.799 497.856,499.731 518.201,510.654 C 533.977,515.25 572.554,494.800 569.848,521.948 C 552.927,541.235 527.667,522.388 506.503,526.540 C 492.944,527.705 455.888,520.852 470.485,545.276 C 476.067,565.641 437.601,563.860 423.021,561.455 C 411.298,558.316 422.445,523.731 396.859,534.222 C 373.444,536.237 348.263,539.128 326.518,528. C 313.708,506.171 352.117,512.546 357.533,513.494 C 372.669,497.037 398.984,509.528 416.148,496.495 C 428.843,482.992 399.882,459.606 425.604,454.270 C 438.106,452.098 429.349,446.715 429.187,442.468 C 439.381,428.038 455.947,416.048 473.938,414.663 z"
           id="path7887" /><path
           style="fill:#758949;"
           d="M 275.179,501.892 C 292.410,488.933 311.668,520.896 286.513,524.008 C 262.770,525.078 239.559,532.63 216.363,531.992 C 197.448,538.067 173.981,510.852 200.541,504.633 C 217.368,497.768 234.994,502.859 252.080,504.591 C 259.858,504.647 267.578,503.437 275.179,501.892 z"
           id="path5163" /><path
           style="fill:#758949;"
           d="M 90.907,421.850 C 115.097,434.205 79.915,449.140 75.308,461.933 C 76.046,476.838 111.893,493.205 88.037,505.814 C 65.591,511.710 67.119,539.381 74.391,554.828 C 68.793,571.202 60.646,583.138 74.985,576.198 C 90.053,583.430 77.355,599.522 69.679,599.936 C 78.245,606.26 82.148,640.738 58.958,631.437 C 43.811,614.828 51.809,598.97 38.187,581.490 C 15.582,576.927 11.083,531.721 38.271,531.790 C 51.983,522.087 23.004,527.286 25.987,516.22 C 14.801,507.378 -24.167,523.467 -13.648,497.965 C 4.844,484.197 29.168,497.071 49.732,490.9 C 72.736,477.877 64.285,445.583 79.401,426.719 C 82.216,423.403 86.609,421.655 90.907,421.850 z"
           id="path5341" /><path
           style="fill:#758949;"
           d="M -79.875,564.18 C -85.413,581.540 -46.054,608.532 -78.955,614.355 C -97.039,617.317 -117.370,620.221 -130,635 C -82.896,634.678 -35.759,635.66 11.323,634.460 C 29.818,631.873 32.140,603.452 9.861,611.038 C -9.013,604.237 -29.929,628.832 -44.497,610.055 C -56.171,594.637 -68.690,579.512 -79.875,564.18 z M 150,603.127 C 144.337,627.035 108.911,611.083 99.920,630.969 C 117.081,647.786 135.136,622.453 152.770,622.460 C 175.979,626.833 198.486,638.54 222.864,633.699 C 235.379,636.403 262.364,617.725 238.087,614.456 C 217.835,612.636 197.972,611.038 177.764,613.750 C 164.751,616.281 153.083,579.323 144.860,597.480 C 146.791,599.185 148.550,600.989 150,603.127 z"
           id="path5363" /><path
           style="opacity:1;fill:#758949;"
           d="M 540.843,255.5 C 524.778,267.032 546.199,290.831 557.714,298.356 C 573.544,321.31 550.898,343.348 529.817,350.348 C 514.884,360.46 498.146,378.822 478.618,367.634 C 457.085,358.232 456.528,329.755 472.804,314.99 C 480.380,309.560 496.059,280.616 476.601,293.060 C 454.726,306.354 466.225,259.548 454.897,269.268 C 449.416,295.563 437.087,322.417 413.277,336.765 C 397.554,352.32 376.854,358.488 357.903,368.558 C 335.403,385.986 351.746,414.691 371.734,425.793 C 380.956,437.386 405.654,466.909 416.517,447.00 C 406.766,425.211 374.881,424.090 368.522,399.817 C 380.294,378.698 405.382,401.155 419.465,408.932 C 436.020,418.397 440.374,399.051 423.214,395.466 C 407.605,387.724 417.303,366.273 433.411,377.239 C 455.436,387.157 477.494,397.603 498.735,408.735 C 517.530,426.448 537.356,442.847 556.807,459.809 C 571.992,479.766 610.187,470.050 600.638,441.696 C 595.542,428.910 609.339,397.222 584.625,408.658 C 566.401,407.978 544.296,410.00 527.955,401.135 C 525.184,385.43 540.099,372.884 550.007,362.353 C 562.306,351.130 577.496,343.24 593.523,339.24 C 607.774,328.866 599.681,310.070 582.581,312.480 C 568.270,296.309 567.300,269.826 548.224,257.375 C 545.919,256.285 543.411,255.53 540.843,255.5 z"
           id="rect7802" /><path
           style="opacity:1;fill:#758949;"
           d="M -94.406,299.06 C -112.304,303.291 -145.945,302.32 -155,322.5 C -155.824,347.833 -128.327,317.835 -114.937,319.205 C -86.634,311.946 -56.693,319.598 -30.861,331.769 C -10.525,320.979 -47.440,311.617 -56.852,308.219 C -68.863,303.53 -81.342,299.037 -94.406,299.06 z M -155,405 C -155.704,423.49 -155.581,450.965 -155.077,463.884 C -127.982,452.644 -103.146,452.013 -84.900,437.138 C -76.646,411.704 -111.267,402.906 -130.098,401.640 C -136.858,401.257 -143.835,402.0 -155,405 z"
           id="path6151" /></g><g
         style="fill:#17181f;fill-opacity:1;"
         id="g5672"
         transform="matrix(0.5,0,0,0.5,161.785,352.052)"><path
           style="opacity:0.6;fill:#17181f;"
           d="M 44.470,84.288 C 42.091,86.145 43.127,87.588 44.470,84.288 z"
           id="path5621" /><path
           style="fill:#17181f;"
           d="M 435.313,39.975 C 437.069,40.076 435.818,39.307 435.313,39.975 z"
           id="path5005" /><path
           style="fill:#17181f;"
           d="M 569.376,220.569 C 571.946,219.7 568.522,218.329 569.376,220.569 z"
           id="path7844" /><path
           style="fill:#17181f;"
           d="M -40.779,446.382 L -40.561,446.382 L -40.779,446.382 L -40.779,446.382 z"
           id="path5285" /><path
           style="fill:#17181f;"
           d="M 417.375,581.8 C 398.238,581.952 380.983,586.234 363.105,590.959 C 345.113,599.35 386.040,605.875 363.224,611.210 C 343.557,611.47 359.752,626.180 370.685,619.529 C 386.174,614.371 400.008,607.479 416.337,607.208 C 422.333,590.876 379.920,607.349 399.568,591.529 C 402.112,588.623 427.042,589.396 417.375,581.8 z"
           id="path5703" /><path
           style="fill:#17181f;"
           d="M 355.75,406.93 C 345.563,426.00 359.119,445.641 379.079,449.548 C 393.821,459.642 403.065,489.476 378.326,492.93 C 364.364,500.197 346.707,507.293 332.940,495.498 C 312.881,487.077 321.290,464.152 317.027,448.902 C 308.642,458.480 307.855,480.428 304.438,495.173 C 296.137,513.389 275.074,521.187 264.685,538.074 C 258.726,552.710 249.924,565.688 244.872,580.692 C 243.891,598.635 249.491,617.083 244.252,634.905 C 271.077,640.679 252.795,609.001 258.218,595.085 C 263.563,569.722 282.664,597.31 269.918,608.247 C 252.700,621.883 294.199,644.002 290.428,630.909 C 274.423,617.495 289.749,597.368 280.918,580.774 C 270.535,561.572 289.093,546.569 306.823,545.81 C 313.962,540.53 322.801,529.558 316.024,545.185 C 308.605,559.668 323.185,573.127 322.772,550.686 C 328.963,526.89 339.400,578.581 350.155,564.257 C 348.082,555.731 331.634,532.831 349.913,546.99 C 358.984,556.440 371.463,549.012 358.273,539.421 C 349.754,522.001 376.915,513.411 391.297,515.025 C 404.986,509.113 425.639,502.079 427.100,484.595 C 421.416,461.503 450.427,457.184 466.518,462.311 C 490.519,463.933 514.039,456.772 537.138,451.289 C 551.669,448.932 576.006,418.961 546.684,423.721 C 527.187,414.422 511.907,442.330 489.895,433.585 C 459.885,432.463 430.621,456.076 401.087,441.566 C 382.700,434.482 371.333,417.65 355.75,406.93 z"
           id="path7926" /><path
           style="fill:#17181f;"
           d="M -26.717,185.819 C -4.009,189.708 -24.996,210.33 -34.568,217.511 C -39.374,239.736 -17.316,208.817 -8.795,211.183 C 7.990,223.443 -31.198,234.136 -20.724,250.752 C -10.009,262.063 7.054,278.131 -17.995,280.536 C -14.593,283.824 -4.163,280.203 -1.952,288.349 C 7.172,283.655 30.926,277.876 13.464,292.746 C -12.105,296.797 15.175,317.069 21.452,327.938 C 23.165,343.552 2.944,317.842 -4.293,317.437 C -28.648,311.364 -14.592,277.076 -41.598,277.185 C -50.194,267.248 -55.047,248.224 -57.829,234.093 C -45.571,221.697 -61.987,197.556 -39.529,192.225 C -36.326,188.081 -30.491,189.045 -26.717,185.819 z"
           id="path7716" /><path
           style="fill:#17181f;"
           d="M 55.876,52.194 C 78.421,57.603 31.912,89.563 53.025,80.097 C 71.395,82.048 64.699,116.828 55.896,127.423 C 36.265,131.554 36.368,155.472 19.776,162.6 C 15.135,173.292 -8.288,180.141 0.013,161.736 C -6.056,140.265 -28.842,169.336 -43.099,158.238 C -55.076,156.300 -73.653,174.818 -71.911,151.839 C -75.676,146.077 -74.836,122.54 -67.447,136.601 C -70.518,154.716 -56.847,142.723 -60.010,131.582 C -50.276,124.990 -58.894,159.068 -41.321,150.581 C -29.086,152.776 -5.023,148.485 -11.680,132.406 C 13.073,127.595 -28.953,103.292 -6.472,103.009 C -0.976,125.046 16.324,106.496 8.478,91.834 C 11.912,74.662 22.715,85.114 19.746,97.393 C 22.728,89.987 28.087,66.534 42.915,59.842 C 46.861,56.779 50.465,52.453 55.876,52.194 z"
           id="path5623" /><path
           style="fill:#17181f;"
           d="M 312.751,36.819 C 333.347,31.401 319.520,68.441 339.837,53.566 C 355.785,62.978 336.469,71.570 334.110,79.235 C 342.926,82.750 353.361,85.892 344.447,97.071 C 353.134,99.680 367.802,101.47 378.486,102.476 C 391.604,100.00 399.455,92.651 405.879,81.436 C 420.967,87.675 377.675,107.470 401.457,104.086 C 401.113,116.866 376.638,106.043 368.316,111.684 C 354.696,120.757 339.014,116.713 332.787,100.527 C 310.130,94.775 300.900,68.842 300.369,48.584 C 302.113,42.960 306.226,36.966 312.751,36.819 z"
           id="path5610" /><path
           style="fill:#17181f;"
           d="M 124.563,61.382 C 141.869,61.999 123.813,93.281 146.275,82.862 C 164.259,65.635 179.165,98.949 171.855,113.641 C 163.317,122.193 159.439,139.925 151.047,144.667 C 152.153,135.436 152.690,126.589 143.802,125.534 C 153.709,118.321 175.291,92.812 148.314,94.460 C 138.699,102.752 133.010,118.902 121.868,123.960 C 117.942,117.990 123.621,114.946 118.440,110.975 C 132.067,112.793 142.774,86.452 123.194,95.627 C 118.380,100.722 103.558,124.369 106.209,104.387 C 106.320,94.245 132.543,86.253 113.688,81.819 C 96.133,83.671 89.213,111.185 73.688,109.569 C 73.979,101.064 107.162,83.463 83.630,87.231 C 77.083,94.797 57.400,93.831 72.357,82.939 C 90.393,80.118 103.401,65.319 121.033,61.716 L 124.563,61.382 L 124.563,61.382 z"
           id="path7545" /><path
           style="fill:#17181f;"
           d="M 600,65 C 578.446,70.035 558.890,80.922 538.305,88.790 C 514.410,94.174 529.541,115.832 543.789,121.904 C 557.726,137.020 513.328,132.244 530.286,143.139 C 539.038,141.785 565.464,141.977 547.525,153.817 C 538.669,160.204 537.703,174.858 535.410,183.983 C 560.548,189.769 547.664,147.864 574.688,149.69 C 585.780,143.918 584.790,125.621 600,132.537 C 601.995,117.92 599.777,112.229 584.967,117.773 C 576.042,121.476 552.111,108.38 573.016,108.230 C 583.603,111.967 602.154,100.226 581.569,100.450 C 579.292,94.783 601.689,90.527 584.670,89.034 C 576.763,91.731 557.543,111.007 555.736,94.681 C 565.083,78.373 603.506,84.368 600,65 z"
           id="path5033" /><path
           style="fill:#17181f;"
           d="M 205.999,403.162 C 222.110,400.367 234.226,391.739 232.584,373.83 C 234.461,365.526 241.617,336.05 248.461,356.988 C 252.945,369.136 233.998,393.456 257.801,385.073 C 268.688,382.753 290.532,383.386 294.040,392.778 C 277.204,399.388 256.313,394.789 241.160,401.138 C 235.562,410.652 211.000,414.918 205.999,403.162 z"
           id="path7676" /><path
           style="fill:#17181f;"
           d="M 332.845,139.475 C 352.863,130.378 349.487,158.01 337.832,165.14 C 331.732,174.884 336.697,200.271 341.491,178.337 C 346.584,160.053 367.846,164.000 379.377,152.626 C 390.418,146.210 420.427,167.530 397.029,174.301 C 386.417,176.486 377.457,201.185 392.497,186.372 C 397.068,174.413 406.442,182.571 408.958,183.425 C 414.068,158.077 439.235,174.174 455.675,175.739 C 482.828,175.897 468.285,213.057 450.947,215.550 C 440.538,213.907 408.369,216.499 415.688,229.194 C 427.156,218.386 460.833,219.25 448.600,241.171 C 438.832,257.209 415.750,243.928 406.295,261.499 C 391.087,275.576 384.198,295.784 370.463,311.248 C 357.435,323.151 348.308,340.656 355.16,358.499 C 355.389,339.321 365.823,311.751 386.970,310.444 C 390.792,318.100 381.501,352.171 396.408,334.557 C 395.831,322.811 391.000,291.040 411.286,308.877 C 418.026,318.01 441.996,305.671 422.283,302.697 C 401.139,302.839 404.714,267.453 420.799,260.306 C 433.241,248.443 445.414,261.684 446.944,271.273 C 452.090,255.386 460.197,240.366 466.783,225.053 C 471.331,209.361 489.971,199.825 488.548,182.335 C 482.707,169.026 470.173,165.759 457.203,160.569 C 448.661,148.764 427.427,161.944 413.982,156.483 C 397.448,150.315 389.629,129.947 371.871,126.594 C 355.030,131.24 340.265,134.178 326.383,121.030 C 314.588,114.722 291.517,99.562 287.560,121.929 C 279.397,133.690 264.780,107.848 251.050,111.580 C 232.488,106.003 213.227,123.157 212.830,141.344 C 222.162,137.388 231.952,131.694 237.381,144.667 C 246.012,142.670 253.719,121.984 267.025,134.670 C 270.664,149.682 250.665,157.810 243.525,169.20 C 239.271,182.893 207.443,183.278 212.044,189.767 C 222.009,184.899 237.877,186.188 235.552,197.509 C 243.165,193.245 248.768,163.463 256.028,185.527 C 259.303,197.669 288.974,203.598 270.948,188.430 C 258.541,178.825 257.702,156.452 274.009,150.469 C 293.394,140.31 298.839,166.61 282.455,174.589 C 268.624,190.52 298.714,167.773 288.785,185.394 C 297.133,199.246 295.406,171.123 298.905,165.093 C 307.593,154.063 322.334,149.656 332.845,139.475 z"
           id="path7569" /><path
           style="fill:#17181f;"
           d="M 560.345,226.194 C 570.694,239.566 539.999,265.05 568.244,267.620 C 575.316,273.079 605.897,265.093 589.369,277.637 C 576.209,280.310 543.939,271.606 552.439,295.321 C 554.648,309.836 530.244,319.813 550.738,329.860 C 557.794,341.681 559.532,356.254 577.322,352.021 C 587.427,349.241 607.058,360.351 588.549,364.587 C 564.999,354.584 559.015,381.195 561.119,398.87 C 562.259,410.792 550.118,418.982 552.783,402.285 C 552.202,389.57 541.440,357.285 526.467,375.71 C 515.224,382.672 505.208,407.771 490.576,397.434 C 497.813,379.725 521.228,373.73 529.154,355.58 C 532.419,340.678 534.228,308.963 509.707,318.284 C 492.014,328.649 466.845,312.548 484.473,294.387 C 502.429,288.056 520.196,314.187 537.560,300.139 C 546.962,284.527 534.385,268.670 526.479,256.339 C 532.000,248.640 547.654,259.186 547.325,242.59 C 550.056,236.278 553.516,228.789 560.345,226.194 z"
           id="path7851" /><path
           style="fill:#17181f;"
           d="M -55.529,-47.117 C -46.847,-36.949 -63.249,-11.023 -39.965,-13.941 C -33.287,3.138 3.100,-19.203 6.667,7.749 C -5.992,13.522 -19.200,-5.973 -34.811,3.163 C -46.610,-0.387 -36.169,23.362 -51.061,11.757 C -42.695,27.198 -46.887,50.869 -67.774,52.935 C -84.797,48.901 -97.365,70.083 -110.259,67.709 C -120.803,52.397 -113.898,21.858 -91.193,27.681 C -76.723,29.255 -58.147,32.595 -65.560,11.62 C -66.480,0.487 -99.369,-14.114 -76.027,-17.707 C -62.994,-15.800 -70.688,-45.17 -55.529,-47.117 z"
           id="path7865" /><path
           style="fill:#17181f;"
           d="M -15.614,356.373 C -22.403,348.830 -23.847,321.532 -34.489,341.948 C -39.582,350.629 -72.942,356.794 -56.909,339.771 C -55.617,321.053 -79.360,353.510 -86.482,358.694 C -94.385,362.874 -115.117,390.635 -94.150,376.79 C -78.640,368.87 -85.083,396.030 -75.739,402.815 C -69.384,424.632 -74.873,371.691 -63.846,395.540 C -62.987,403.270 -53.017,420.966 -52.531,403.753 C -61.296,392.467 -72.899,371.944 -48.689,371.770 C -35.270,369.222 -35.187,352.828 -19.106,359.587 L -17.247,358.490 L -15.614,356.373 L -15.614,356.373 z"
           id="path5063" /><path
           style="fill:#17181f;"
           d="M 169.313,461.538 C 184.142,467.810 192.624,486.09 210.325,485.603 C 226.187,487.988 242.800,487.038 258.165,484.202 C 262.328,488.353 238.273,499.633 252.967,499.026 C 266.888,497.131 265.229,523.527 259.041,529.633 C 254.225,515.813 235.402,515.915 220.920,516.423 C 208.878,513.232 197.253,513.893 194.486,526.777 C 180.219,539.762 172.658,525.310 167.480,513.518 C 158.059,511.106 135.154,513.719 133.967,503.363 C 145.535,492.595 179.909,511.129 177.436,487.441 C 177.558,481.149 158.925,462.943 169.313,461.538 z"
           id="path5266" /><path
           style="fill:#17181f;"
           d="M -40.686,443.038 C -21.520,445.723 -2.097,465.144 -10.440,485.440 C -19.570,496.441 -29.373,509.947 -32.266,522.070 C -47.029,509.955 -22.895,492.764 -21.759,482.933 C -34.249,490.868 -43.020,472.218 -26.364,473.56 C -19.963,466.903 -46.450,470.498 -43.742,482.067 C -59.084,491.761 -55.148,462.129 -40.126,463.895 C -15.251,461.297 -52.618,451.196 -40.686,443.038 z"
           id="path5306" /><path
           style="fill:#17181f;"
           d="M 78.813,492.819 C 88.192,510.53 111.962,487.893 120.676,503.749 C 115.913,513.54 99.194,520.609 115.112,531.096 C 120.828,548.580 103.417,532.345 101.629,533.188 C 96.278,545.210 125.887,547.533 108.656,554.638 C 89.357,550.904 97.998,508.071 76.012,530.570 C 70.225,521.22 58.023,537.398 52.928,521.668 C 50.288,503.300 72.306,505.902 78.813,492.819 z"
           id="path5321" /><path
           style="fill:#17181f;"
           d="M 478.446,-72.782 C 478.183,-83.682 491.734,-106.253 470.272,-95.140 C 460.356,-92.706 432.833,-106.305 455.389,-110.775 C 466.313,-123.74 435.073,-114.252 428.140,-113.795 C 418.571,-110.672 394.611,-113.297 393.981,-103.344 C 405.837,-104.771 416.828,-97.845 405.269,-87.088 C 406.255,-78.639 394.458,-54.213 408.576,-70.884 C 423.592,-90.312 410.948,-56.836 413.971,-51.449 C 427.901,-56.316 416.009,-97.808 442.901,-79.639 C 454.725,-73.048 465.100,-88.276 473.503,-72.331 L 475.308,-71.998 L 478.446,-72.782 L 478.446,-72.782 z"
           id="path5609" /><path
           style="fill:#17181f;"
           d="M 54.288,1.417 C 47.103,-16.418 53.991,-42.708 75.519,-45.931 C 89.742,-42.596 107.710,-43.539 118.942,-44.488 C 113.542,-26.528 88.429,-39.100 79.536,-34.829 C 95.289,-18.824 75.016,-19.849 70.452,-26.339 C 69.373,-8.026 106.206,-21.882 90.647,-3.772 C 77.195,4.692 59.241,-31.932 61.536,-2.433 C 62.413,1.167 56.571,5.100 54.288,1.417 z"
           id="path5613" /><path
           style="fill:#17181f;"
           d="M 333.562,16.595 C 344.782,18.575 361.143,24.846 365.950,9.752 C 374.717,3.240 383.335,-14.773 394.142,-11.198 C 395.573,1.476 385.209,10.753 376.356,18.027 C 375.801,26.170 390.687,25.108 396.296,29.802 C 402.660,31.180 428.193,54.886 409.578,49.049 C 396.111,44.021 382.162,40.038 370.572,31.047 C 358.094,37.109 334.671,32.854 333.562,16.595 L 333.562,16.595 z"
           id="path5615" /><path
           style="fill:#17181f;"
           d="M 233.928,-120.424 C 245.534,-107.508 213.363,-81.435 241.722,-78.732 C 250.558,-74.717 282.707,-79.616 260.580,-67.054 C 246.867,-68.206 214.694,-73.649 225.859,-48.931 C 224.633,-36.963 203.816,-26.156 222.783,-16.286 C 232.365,-8.174 230.322,10.256 247.865,4.915 C 257.680,3.129 282.077,12.010 262.133,17.967 C 238.492,7.917 231.838,35.071 234.959,52.933 C 237.241,63.962 224.103,73.841 226.209,56.772 C 225.189,44.505 215.763,10.934 200.544,29.642 C 189.264,36.419 178.644,60.250 164.496,51.021 C 171.462,33.298 195.025,27.240 203.001,9.117 C 205.887,-5.488 207.926,-37.434 183.723,-28.335 C 166.085,-18.076 140.569,-34.025 158.052,-52.351 C 176.145,-58.517 193.816,-32.558 211.414,-46.558 C 221.270,-62.364 207.050,-78.044 200.081,-90.910 C 205.128,-98.126 221.297,-88.353 220.261,-104.204 C 222.832,-110.266 227.663,-118.374 233.928,-120.424 z"
           id="path5617" /><path
           style="fill:#17181f;"
           d="M 558.906,509.906 C 539.592,517.182 519.104,520.67 498.514,520.9 C 484.109,516.356 460.993,514.612 460.892,534.430 C 452.247,543.106 468.317,556.489 458.385,565.734 C 465.926,580.012 482.357,592.871 478.460,610.803 C 469.727,621.167 464.486,640.715 484.256,634.905 C 495.362,637.240 478.216,623.907 487.027,616.565 C 483.614,600.780 495.801,598.319 506.176,607.791 C 515.342,615.670 533.662,607.570 514.807,603.74 C 502.518,604.746 503.964,597.515 506.547,590.031 C 486.569,601.265 482.699,577.572 477.590,563.859 C 471.438,547.955 470.328,528.3 492.976,531.888 C 513.385,525.684 514.216,550.435 526.600,559.826 C 531.256,569.226 551.493,568.705 535.349,559.71 C 522.035,551.670 513.792,525.375 538.223,528.778 C 555.640,531.127 554.874,556.624 575.538,555.057 C 592.128,561.517 605.267,559.988 600,539.576 C 593.847,541.82 574.112,554.99 563.370,540.952 C 546.444,534.686 553.954,518.28 561.556,510.864 L 558.906,509.906 z"
           id="path5786" /><path
           style="fill:#17181f;"
           d="M 470,-165.094 C 463.359,-144.158 494.001,-138.293 491.066,-119.944 C 490.507,-103.773 485.828,-79.478 503.305,-72.742 C 507.168,-70.474 521.992,-83.950 516.537,-68.776 C 513.522,-49.912 516.709,-25.731 535.399,-16.125 C 551.003,-9.792 575.376,-17.042 550.519,-27.731 C 556.650,-39.723 554.212,-45.855 540.024,-45.090 C 517.107,-56.704 542.053,-73.859 556.967,-61.306 C 573.040,-58.242 589.202,-54.980 600,-41.393 C 598.833,-50.390 589.912,-57.816 600,-63.689 C 596.203,-69.665 564.345,-58.787 581.167,-76.241 C 589.536,-85.017 580.931,-114.73 576.330,-91.684 C 575.492,-72.620 547.328,-61.733 537.031,-80 C 526.038,-95.605 551.030,-102.009 561.031,-92.81 C 576.415,-92.302 545.527,-104.363 565.270,-105.191 C 572.972,-120.975 543.736,-98.314 536.033,-104.238 C 525.682,-116.525 494.984,-114.75 497.886,-135.0 C 511.721,-144.197 534.296,-130.717 545,-149.218 C 524.016,-142.21 503.022,-153.159 487.568,-165.094 C 481.712,-165.094 475.856,-165.094 470,-165.094 z"
           id="path5788" /><path
           style="fill:#17181f;"
           d="M -150,-65.906 C -152.530,-57.763 -143.633,-62.932 -150,-65.906 z M -150,-46.156 C -152.421,-34.897 -132.804,-34.567 -147.875,-44 L -150,-46.156 z"
           id="path5802" /><path
           style="fill:#17181f;"
           d="M -147.406,510.781 C -151.840,520.254 -137.880,532.329 -150,540.110 C -154.884,557.926 -144.674,562.675 -128.478,560.466 C -107.816,563.553 -83.737,572.708 -67.239,554.332 C -77.444,557.642 -101.176,566.010 -116.703,555.9 C -143.787,544.798 -83.651,538.706 -102.543,528.309 C -114.046,527.597 -140.500,557.889 -137.132,530.607 C -132.177,523.879 -142.212,513.819 -147.406,510.781 z"
           id="path5804" /><path
           style="fill:#17181f;"
           d="M 244.156,-165 C 239.392,-156.74 230.683,-124.441 249.357,-136.510 C 262.760,-140.958 248.694,-156.823 257.843,-165 C 253.281,-165 248.718,-165 244.156,-165 z M 282.25,-165 C 285.766,-157.48 302.910,-151.930 293.343,-165 C 289.645,-165 285.947,-165 282.25,-165 z"
           id="path5808" /><path
           style="fill:#17181f;"
           d="M -148.343,65 C -153.944,71.344 -147.949,79.819 -142.276,68.433 C -139.207,63.527 -146.000,65.357 -148.343,65 z M -121.125,106.218 C -133.686,114.03 -157.067,108.382 -150,130.332 C -146.282,135.359 -140.641,112.483 -129.789,122.651 C -115.702,136.795 -109.182,109.703 -121.125,106.218 z"
           id="path5818" /></g></g></pattern></defs><sodipodi:namedview
   id="namedview4656"
   pagecolor="#ffffff"
   bordercolor="#000000"
   borderopacity="0.25"
   inkscape:showpageshadow="2"
   inkscape:pageopacity="0.0"
   inkscape:pagecheckerboard="0"
   inkscape:deskcolor="#d1d1d1"
   showgrid="false"
   inkscape:zoom="0.47336478"
   inkscape:cx="292.5862"
   inkscape:cy="826.00146"
   inkscape:window-width="1920"
   inkscape:window-height="1011"
   inkscape:window-x="0"
   inkscape:window-y="0"
   inkscape:window-maximized="1"
   inkscape:current-layer="g4653" />
<g
   id="g4653">
	<g
   id="g4649"
   transform="translate(7.484648,-151.51667)">
		
		
	</g>
	<path
   d="m 2009.8682,687.85493 c 0,0 15.4232,-15.6755 32.1161,-33.8832 16.432,-19.2193 10.3666,-23.5146 6.0674,-34.6447 -4.2994,-11.1262 -8.5985,-5.8143 -14.9191,-6.3214 -6.3242,-0.5042 -4.5524,2.5292 -2.7845,3.5399 1.772,1.0125 -1.0083,2.026 -1.2634,4.8036 -0.2511,2.7845 -0.7556,3.5428 2.0229,7.8423 2.7845,4.2992 2.2762,4.8066 1.0125,6.0701 -1.2697,1.2628 -6.0692,8.3445 -7.3328,12.1356 -1.2638,3.7932 -5.561,7.8403 -9.6113,9.357 -4.0442,1.5197 -2.7804,0.5073 -4.0442,-5.0576 -1.2615,-5.563 -1.5167,-13.9077 -4.5524,-25.0347 -3.0356,-11.127 -13.1492,-10.1164 -23.5198,-18.9672 6.0693,-6.0663 -1.0105,-14.1576 -1.0105,-14.1576 0,0 6.3245,-10.8748 8.3475,-13.1509 2.021,-2.2761 4.046,-2.2761 6.0692,-4.8036 2.0253,-2.5273 -2.5294,-1.2646 0.5045,-9.358 3.0396,-8.0913 3.7948,-9.8622 3.0396,-17.9516 -0.7595,-8.0953 -10.6279,-13.9124 -16.1869,-16.4399 -5.5649,-2.5272 -9.356,-1.0116 -13.4022,0 -4.0503,1.0135 -5.818,2.2761 -7.59,4.5515 -1.7662,2.2761 -11.3772,6.5764 -8.5966,11.1279 2.7803,4.5513 1.7699,5.5621 1.7699,8.3445 0,2.7834 -2.2761,3.5409 -3.0338,9.103 -0.7612,5.5651 3.7931,8.8517 3.7931,8.8517 l -1.5167,9.6122 c 0,0 -1.0125,0.5023 -4.3014,5.8112 -8.7667,-0.9938 -15.6171,0.3954 -20.6185,3.7378 -5.8577,-5.4789 -10.6613,-5.9634 -10.6613,-5.9634 0,0 -3.7593,-0.5024 -5.7627,-3.5072 -2.0033,-3.0081 1.5031,-3.7606 1.5031,-9.5223 0,-5.7617 -1.7502,-12.7762 -2.5038,-13.7779 -0.7515,-1.0036 1.7504,-13.2786 -1.0006,-36.5768 -2.7549,-23.3002 -24.3027,-24.0517 -30.819,-22.5507 -6.5103,1.504 -8.7688,2.0054 -14.2784,2.7558 -5.5114,0.7554 -13.0265,12.7813 -13.5269,24.0536 -0.5022,11.2734 -2.7587,29.8114 -3.0098,37.8297 -0.2491,8.0173 -2.2524,8.2654 -13.5249,11.2734 -3.3163,0.8839 -6.1245,2.1713 -8.6243,3.9315 -4.7798,-6.8089 -8.1813,-11.5156 -8.1813,-11.5156 -4.155,-12.4728 -20.7847,-12.4728 -32.0037,-14.134 -9.1464,-2.911 -10.3904,-11.2219 -10.3904,-11.2219 l -0.8226,-1.248 c 8.3101,-2.4938 5.816,-16.6238 10.3884,-22.444 6.2313,-0.4141 3.7375,-10.8086 3.7375,-10.8086 0,0 -0.8267,-7.0659 -1.2478,-20.3643 -0.4135,-13.3015 -13.7107,-19.1194 -20.7806,-20.3645 -7.0641,-1.2516 -20.3694,2.9052 -25.351,7.063 -4.9895,4.155 -5.8202,11.2219 -7.4851,18.7061 -1.6594,7.4805 4.9933,9.972 5.4105,11.2191 0.3402,1.0372 0.1147,5.4957 -0.4469,9.8316 -14.488,-42.29 -42.4531,-28.8385 -47.4307,-29.8333 -5.2448,-1.049 -11.8877,-4.1964 -13.6377,-8.389 -1.7462,-4.1953 2.4521,-18.8791 2.4521,-18.8791 0,0 7.691,-1.3981 9.7871,-8.043 2.1023,-6.6407 -4.5485,-4.1935 -4.5485,-4.1935 l 2.1023,-2.4473 c 0,0 0,-6.2937 0,-11.5374 0,-5.2455 -1.0521,-18.8762 -10.8413,-29.3654 -9.7892,-10.4863 -33.9119,-3.8464 -41.9508,4.1935 -8.0431,8.0428 -6.6371,10.8402 -6.2927,14.3357 0.3519,3.4954 -1.0443,1.7463 -3.1447,10.137 -2.0981,8.3911 6.6429,6.645 6.6429,6.645 0,0 0,4.1915 0,14.6807 0,10.4892 6.2889,7.3439 6.2889,7.3439 0,0 1.0499,2.4462 1.0499,9.7862 0,7.3436 4.5466,4.5455 6.9868,11.8853 2.4542,7.345 0.356,8.042 -3.4923,17.1331 -2.0468,4.8421 -5.4899,6.4083 -9.364,7.8204 -5.0668,-37.8938 -33.4828,-29.6522 -33.4828,-29.6522 0,0 1.7166,-20.5541 1.7166,-28.6891 0,-8.1397 -6.8544,-27.4125 -14.5651,-46.2542 -7.7068,-18.8436 -36.829,-5.997 -43.2543,-0.4261 -6.4213,5.5661 -21.4114,32.5435 -27.8289,44.1096 -6.2649,11.2665 -8.0508,31.0572 -8.1396,32.0698 -1.1985,-5.9655 -2.4069,-13.2717 -3.5498,-22.6743 -4.4617,-36.6429 -26.7433,-43.5754 -33.6747,-45.0615 -6.9315,-1.4832 -6.9336,-7.428 -14.8579,-13.8641 -7.9182,-6.437 -20.3019,-3.4698 -23.7648,-3.4698 -3.4725,0 -1.491,-9.4075 -0.9946,-15.3513 0.4963,-5.9407 1.9835,-10.8895 8.4226,-10.8895 6.4352,0 4.4515,-2.9724 4.4515,-8.4206 0,-5.4473 0,-18.3216 -0.4944,-21.7893 -0.4965,-3.4677 1.9835,-9.9007 -8.9131,-27.2335 -10.8926,-17.3317 -41.0986,-7.9222 -54.9615,5.9436 -13.865,13.863 -4.9539,31.1958 -4.4595,43.0793 0.4962,11.8824 0.9907,6.9334 4.9537,12.3809 3.9613,5.4463 10.4004,15.3492 10.4004,15.3492 l 0.4923,6.9314 c 0,0 -6.9314,3.962 -13.3684,5.9438 -6.4374,1.9805 -5.9429,5.9415 -10.3983,5.9415 -4.4597,0 -9.4116,2.476 -14.8557,10.4003 -12.3682,4.231 -18.5323,17.2319 -21.3029,30.989 -1.948,-0.7247 -3.3203,-1.1084 -3.3203,-1.1084 0,0 2.9843,-1.9886 4.9756,-6.6339 -0.3342,-4.3111 -28.1987,-14.926 -28.1987,-14.926 l -0.9948,-1.9904 c 0,0 8.6263,-6.3008 12.2729,-13.5982 3.6508,-7.2973 2.6541,-12.9383 2.6541,-12.9383 0,0 2.6538,-0.9967 4.9717,-10.6149 2.99,-11.6077 -2.9823,-10.612 -2.9823,-10.612 0,0 0,-3.6486 -0.6644,-17.2487 -0.6626,-13.5989 -14.927,-30.5164 -39.4691,-22.5554 -24.5441,7.9608 -22.5586,27.8605 -24.8761,37.4805 -2.3239,9.621 -0.6665,13.5999 -0.6665,18.2435 0,4.6443 -4.9758,23.5502 -9.6191,29.8547 -3.7081,5.0311 -19.25,9.6379 -26.8856,11.9675 -2.3574,-2.1912 -5.1162,-4.326 -8.3574,-6.3411 -21.8782,-9.6825 -51.291,-15.4194 -51.291,-15.4194 l -2.5077,-12.9119 c 0,0 7.1727,1.4348 8.9666,-5.0181 1.7957,-6.4569 2.8674,-11.121 2.1516,-12.9129 -0.7159,-1.7946 -2.8695,-1.4358 -2.1516,-4.3062 0.7159,-2.8677 1.4358,-7.5297 1.7957,-11.1161 0.356,-3.5884 1.0718,-5.38 0.7119,-7.5316 -0.3558,-2.1527 -2.8677,-5.3813 -1.7917,-7.8907 1.0797,-2.5117 -0.36,-8.2487 -3.9435,-12.1949 -3.5874,-3.9442 -11.4761,-9.3224 -14.3474,-13.2696 -2.8695,-3.9454 -8.9685,-6.455 -12.196,-4.6613 -3.2234,1.7907 -5.7369,2.8685 -11.4779,2.5086 -5.735,-0.3581 -11.8319,4.3043 -13.9856,5.7391 -2.1495,1.4347 -12.5499,1.7926 -13.6277,7.1708 -1.0759,5.3831 -3.9454,10.4021 -5.0232,13.6305 -1.0718,3.2275 -4.6631,15.7803 -2.8676,16.8581 1.7957,1.076 4.6632,8.9667 4.6632,8.9667 0,0 -4.3051,4.6611 -1.7957,7.8886 2.5135,3.2285 3.5895,3.5864 2.5135,6.8148 -1.0778,3.2286 -2.5135,7.5298 -0.3578,7.8887 2.1497,0.3599 7.8866,2.5126 8.9664,6.816 1.0739,4.3051 7.8885,2.5115 9.3224,2.5115 1.4358,0 2.1537,12.9118 2.1537,12.9118 0,0 -1.7935,3.2273 -8.2526,6.0958 -6.4508,2.8687 -24.028,10.4014 -28.3293,16.1412 -2.6003,3.4639 -8.7291,5.7626 -12.8623,13.8273 -0.5892,-1.0064 -1.1786,-2.011 -1.7679,-3.0078 -13.0145,-21.993 -50.8027,-27.5688 -50.8027,-27.5688 l -0.625,-0.3143 c -8.6737,0 -22.30146,-12.0804 -21.99076,-18.276 0.3104,-6.1959 -0.9296,-14.2499 -0.9296,-14.2499 0,0 1.24,-0.6189 4.6473,-9.6003 3.40535,-8.9863 -0.3124,-14.8734 -0.3124,-14.8734 0,0 1.8591,-5.2653 -8.0528,-22.3004 -9.9138,-17.0381 -26.6402,-26.6404 -45.8467,-14.5562 -19.2006,12.0763 -18.2732,28.8068 -12.3918,54.825 5.8875,26.0202 12.0814,22.6129 17.0353,26.6403 4.9598,4.0255 3.1028,8.9832 4.6512,13.9382 1.5445,4.9598 -11.4621,12.3926 -19.515,14.8727 -7.1629,2.2029 -18.4729,12.7258 -24.817,20.6956 -0.5735,-0.2274 -1.147,-0.3718 -1.7205,-0.3718 -3.88,0 -7.7641,2.2199 -13.8668,-2.2189 -6.1049,-4.4396 0,-9.4304 -0.5559,-12.2018 -0.5536,-2.7775 0.5559,-13.8699 3.8841,-17.2003 3.3284,-3.3263 2.7745,-11.647 2.7745,-16.0828 0,-4.4386 1.1116,-5.5502 2.215,-11.6539 1.1094,-6.0999 -2.7728,-4.9926 -6.097,-7.2094 -3.3302,-2.2148 2.2129,-3.8851 2.7728,-8.8764 0.5517,-4.9934 -1.6652,-6.6576 -8.3218,-9.9868 -6.6566,-3.3254 -2.2227,-1.1105 -2.2227,-6.1019 0,-4.9907 -4.4339,-4.9907 -8.3179,-4.9907 -3.8821,0 -9.4302,-4.9904 -11.649,-7.2112 -2.2189,-2.2189 -10.5387,0 -14.9814,1.6653 -4.4337,1.664 -6.6536,6.6556 -14.9754,12.2037 -8.3218,5.5463 -6.1009,11.651 -6.6566,27.1813 -0.5557,15.534 6.6566,24.9623 9.4301,37.1691 2.7717,12.2018 4.4379,14.9784 6.104,21.6321 1.6642,6.6565 -12.2077,6.1029 -25.5191,10.5406 -13.3132,4.4377 -26.0746,35.5028 -28.2917,46.0466 -2.2206,10.5397 6.6558,13.3091 6.6558,13.3091 0,0 -0.3937,12.9792 -1.766,27.9297 0.2857,-8.7873 -7.9065,-14.3871 -6.7553,-14.3871 1.3506,0 6.7355,1.3428 7.1826,-3.8167 0.4479,-5.1586 -11.2198,-31.1789 -14.5828,-31.8523 -3.3621,-0.6744 -18.1662,-6.5036 -18.1662,-6.5036 0,0 5.1574,-5.3848 3.5844,-12.5616 -1.5683,-7.1776 -4.2579,-11.664 -4.2579,-11.664 0,0 3.5836,3.1366 6.5024,6.0524 2.9159,2.9161 5.8338,-0.8928 5.8338,-0.8928 0,0 -0.9007,-0.6733 -2.469,-0.6733 -1.5723,0 -6.0515,-4.2628 -6.0515,-4.2628 0,0 5.8262,-0.8969 12.5558,2.913 6.7338,3.8149 0.45,3.8149 0,4.9371 -0.447,1.1183 3.1415,4.9351 3.8159,-3.1414 0.6713,-8.0757 -7.4042,-8.0735 -9.8684,-9.1959 -2.4729,-1.1223 1.3429,-3.1406 3.811,-0.8979 2.468,2.2426 5.3831,0.8979 6.9522,0.4489 1.5741,-0.4489 4.9362,-0.2244 7.6315,1.7935 1.5664,-4.9331 -7.405,-12.3382 -7.405,-12.3382 0,0 3.5873,2.023 5.3829,-5.1576 1.7957,-7.6257 -13.236,-7.6257 -13.236,-7.6257 0,0 3.8157,1.7936 5.384,2.0179 1.5731,0.2246 0.8978,2.2446 -1.5684,4.9334 -2.472,2.6954 -9.1986,-1.1213 -11.6618,-10.0938 -2.4702,-8.9693 -5.1665,-19.7396 -10.9937,-28.0375 -5.8328,-8.301 -17.7242,-15.7021 -32.9794,-11.215 -15.2493,4.4844 -18.6142,16.3736 -18.8337,23.7767 -0.2294,7.4012 -3.1443,27.8151 -3.1443,32.5248 0,4.7105 -1.5723,7.1757 -8.5256,19.0661 -6.9533,11.8904 2.0221,12.3393 2.0221,6.5053 0,-5.831 11.4406,-5.1598 11.4406,-5.1598 0,0 1.7916,6.281 0.2214,9.1979 -1.5683,2.9172 -23.3237,9.8683 -24.897,11.663 -1.5693,1.7946 -12.7833,11.666 -15.2543,19.7424 -2.467,8.0707 -9.8732,21.9832 -9.8732,21.9832 l 8.9794,2.0182 c 0,0 0.6693,8.5214 0.6693,12.5587 0,4.0385 -1.3467,32.7523 -3.1413,40.3769 -1.7928,7.6266 -3.5874,34.5468 -4.7087,49.799 -1.1243,15.2552 -0.4479,63.4803 -0.6733,72.9024 -0.2235,9.4204 23.7758,19.9622 23.7758,19.9622 v 4.2635 l 6.2838,2.0214 c 0,0 3.81,48.6726 3.3621,52.4895 -0.4469,3.8148 -0.8969,13.4546 -8.3001,21.0862 -3.1571,3.2503 -6.0238,8.7578 -8.3661,15.3502 -2.2426,-19.2028 -5.7439,-43.1078 -10.5071,-58.0259 -8.9952,-28.1869 -14.39299,-45.2792 -14.99119,-48.8766 -0.5972,-3.5974 2.9971,-19.1906 4.501,-32.0845 1.49509,-12.896 0.89689,-25.4874 -1.2053,-33.5858 -2.0944,-8.0953 -3.8928,-8.0953 -0.2985,-15.8929 3.60219,-7.7949 5.99899,-29.0847 3.60109,-45.2783 -2.39889,-16.1916 -23.98939,-19.1928 -29.38619,-24.5896 -5.395,-5.3988 -5.6965,-10.496 -6.5974,-14.0936 -0.8978,-3.5991 7.7949,-14.6954 9.2969,-19.1905 1.5009,-4.4982 0.5982,-22.1918 -1.2035,-26.3893 -1.7957,-4.1984 -9.5933,-13.4921 -19.1877,-14.394 -9.5944,-0.8979 -21.2917,2.6984 -22.7899,6.8978 -1.4999,4.1996 -3.8989,9.5964 -5.3988,16.7939 -1.499,7.1975 -1.1974,28.1848 -1.1974,28.1848 0,1.4931 -6.5994,3.3055 -9.8959,4.2045 -3.3027,0.9007 -4.7997,2.1013 -7.4962,4.4971 -2.7015,2.3998 -2.3989,2.1002 -11.0984,13.4971 -8.6924,11.393 1.5012,17.6877 1.5012,17.6877 0,0 -0.8999,4.1974 -3.6014,17.9932 -2.6964,13.7939 -2.9951,40.7833 -1.1944,51.2764 1.7987,10.4971 10.4941,26.0867 10.4941,26.0867 0,0 -2.9999,20.0914 -4.4981,25.1926 -1.4999,5.0963 -10.7936,69.5651 -12.2928,83.9611 -1.4979,14.3912 -14.397,75.8629 -14.397,75.8629 0,0 18.8931,4.1946 20.3951,4.7979 1.4951,0.6012 -0.9027,4.7917 -1.2013,6.5972 -0.2986,1.7977 -2.3978,4.1967 -2.7004,8.3912 -0.2987,4.2024 -1.1974,1.5088 -5.6975,5.4045 -4.499,3.8942 -6.5952,11.6915 -9.2977,15.894 -2.6965,4.1965 -4.1965,11.6896 -8.9931,25.78 -4.7978,14.09629 5.998,11.39509 8.9931,7.7998 2.9999,-3.6013 9.0001,-5.4009 12.2976,-11.7034 3.2958,-6.2909 14.3921,-18.5857 18.2869,-26.0828 3.9028,-7.499 22.4963,-27.8882 22.4963,-27.8882 l 30.282,2.7035 c 0,0 0.9,10.7919 0.9,15.2867 0,4.4991 -0.5984,15.5956 -2.3999,19.4952 -1.7946,3.894 -2.6966,6.5955 -2.6966,10.4913 0,3.8978 -6.8987,21.29299 -8.9941,30.28699 -2.0991,9.0001 -6.2976,17.9943 11.0925,13.493 17.3929,-4.4929 15.8919,-21.2887 16.1927,-23.9883 0.3016,-2.69949 2.9989,-3.59519 5.6965,-5.99609 2.6973,-2.3969 -0.5964,-3.5973 -1.7977,-8.0961 -1.1974,-4.4991 2.3987,-15.5936 4.495,-30.8844 2.1042,-15.2987 8.399,-29.9863 8.399,-29.9863 0,0 8.3967,-2.4031 15.59239,-7.4972 3.0247,-2.1417 6.9444,-3.1108 10.4783,-3.524 -0.9305,17.2704 3.8423,35.676 3.6248,43.187 -0.2294,7.6276 -2.9179,16.8253 -3.1423,24.6785 -0.2245,7.8511 1.3419,14.13 2.0172,25.12159 0.6703,10.9894 22.8788,20.4109 33.4243,17.7212 10.5416,-2.6896 2.2417,-12.5637 -3.5892,-25.79769 -5.831,-13.2363 -8.303,-25.1157 -8.303,-37.2325 0,-12.1147 6.5092,-27.3679 10.9934,-41.051 4.4841,-13.681 8.299,-29.6157 14.5799,-42.1743 6.2818,-12.5588 9.8672,-17.4959 9.8672,-24.2257 0,-6.7318 9.2028,-24.2276 9.2028,-24.2276 0,0 -2.6946,21.7585 -2.2426,25.347 0.4419,3.5933 -3.373,15.4768 -4.7147,28.0426 -1.3447,12.5596 4.0364,43.2936 6.5043,54.2831 2.4681,10.9918 0.2246,25.1274 -1.3477,29.6088 -1.5692,4.4912 -3.8148,18.8425 0,23.7767 3.8159,4.9381 4.7107,9.64879 4.7107,9.64879 0,0 9.6448,-0.2274 11.4404,-0.2274 1.8007,0 6.9572,3.8129 10.7681,10.9956 3.8148,7.1744 23.9993,7.6235 27.5916,5.1614 3.5892,-2.4679 -1.5692,-11.4445 -4.7077,-15.4827 -3.1445,-4.03639 -11.4435,-8.74679 -16.1511,-15.25129 -4.7136,-6.5062 -8.9763,-20.8616 -8.7548,-24.451 0.2264,-3.5892 -0.2215,-25.5686 4.2656,-50.6939 4.4892,-25.1234 0.445,-50.4724 0.445,-50.4724 0,0 2.2524,-11.66 2.6995,-18.8377 0.4469,-7.1797 2.9151,-6.2807 7.1728,-21.3116 4.2676,-15.0278 10.7729,-35.6651 10.7729,-35.6651 l 3.5825,-2.4689 -0.441,-4.2608 2.2386,2.2415 c 0,0 4.4862,0.2264 5.1606,0.2264 0.6725,0 11.214,0.6715 14.5799,-6.5034 0.4441,-0.9473 0.804,-1.9519 1.1017,-2.9961 0.885,0.2095 1.4061,0.3302 1.4061,0.3302 0,0 0.5546,13.3091 2.2179,19.9677 1.6642,6.6567 4.4398,13.8671 -0.5516,41.0491 -4.9944,27.1823 -6.6606,78.2222 -6.6606,78.2222 0,0 4.4398,31.0623 4.4398,47.7077 0,16.6417 -4.9933,16.6417 -7.7661,34.9482 -2.7736,18.30679 23.2982,28.28759 32.7283,24.96139 9.4304,-3.3284 7.2084,-14.4247 0,-29.95469 -7.2102,-15.5321 1.1095,-59.9116 2.22,-90.4252 1.1116,-30.5113 7.2105,-39.3859 9.982,-58.802 2.7776,-19.4151 3.3344,-68.79 3.3344,-68.79 l 8.8726,1.6642 6.1038,0.5587 c 0,0 -1.665,39.3849 -1.665,56.0273 0,16.6437 12.7595,31.62 12.7595,52.1428 0,20.5264 6.1009,66.5751 1.1095,91.5363 -4.9935,24.9594 -15.5331,18.3068 -31.6201,36.05569 -16.0897,17.755 13.868,18.3107 27.1803,16.6437 13.3131,-1.6653 25.5211,-12.2059 27.738,-16.088 2.2189,-3.8818 14.4227,-16.63949 17.1972,-22.74439 2.7784,-6.095 -9.4274,-14.4205 -9.4274,-14.4205 0,0 -4.4417,-7.7681 -4.4417,-12.2098 0,-4.4319 4.4417,-45.4849 5.5472,-80.434 1.1074,-34.9493 -7.7661,-53.8097 -7.2105,-67.6797 0.3718,-9.3155 1.9955,-25.3815 3.0219,-34.9305 0.6191,11.7667 1.337,26.4455 1.337,31.6488 0,8.363 4.3349,22.3033 10.5328,47.7057 6.1957,25.4004 5.5768,33.4561 4.9539,52.0447 -0.6191,18.5835 9.2947,12.0791 12.704,13.0085 3.4075,0.9276 -2.4798,2.7825 -5.2663,7.1234 -2.7865,4.3369 7.7484,7.4359 7.7484,7.4359 0,0 0.615,8.3651 4.0204,12.3857 3.4114,4.0322 9.6074,4.9636 12.0872,3.1068 2.47,-1.861 1.5445,1.5483 2.474,4.327 0.9254,2.7924 0.3084,4.9636 0.3084,9.2968 0,4.3368 -1.238,3.4093 -3.714,7.752 -2.4798,4.3291 -3.4074,16.0997 -5.8873,21.6765 -2.4761,5.57309 -10.2202,13.01279 -12.0811,21.37609 -1.8591,8.3593 18.5855,11.7667 29.4266,9.6013 10.8452,-2.1715 15.4888,-15.4906 15.4888,-17.3438 0,-1.8629 7.1271,-2.1713 9.2967,-6.5065 2.1674,-4.33859 -1.24,-16.73219 -3.101,-22.30529 -1.857,-5.5787 -1.2421,-22.3014 -4.3328,-26.9487 -3.1028,-4.6454 0.6189,-18.5875 2.4758,-19.8274 1.859,-1.2382 3.0952,-5.8855 2.7885,-10.5328 -0.3085,-4.6473 2.7884,-4.0265 3.718,-14.2468 0.9315,-10.228 -11.4621,-4.9578 -11.4621,-4.9578 0,0 -0.3087,-11.7697 -3.718,-25.0917 -3.4054,-13.322 -5.2663,-25.7098 -5.8852,-34.6972 -0.619,-8.9824 4.3369,-13.0097 4.0264,-15.7971 -0.3086,-2.7914 2.1675,-13.9401 4.0303,-19.2065 1.8569,-5.2644 1.8569,-24.1613 1.8569,-24.1613 l 2.1694,-0.3087 c 0,0 2.7845,6.5043 8.6738,19.5149 5.88335,13.0126 13.31916,31.9078 17.03706,40.891 3.7139,8.9803 8.0527,31.2867 13.0086,43.9869 4.9539,12.7002 15.7993,34.3846 17.0391,35.939 1.2379,1.5466 0,3.71 -3.7161,7.4298 -3.7197,3.718 1.859,8.0548 8.9822,11.4642 7.1256,3.4033 4.3389,0.9255 5.5769,5.2604 1.2382,4.3408 5.2664,6.2018 12.3898,6.2018 7.1255,0 1.859,10.2163 0.6212,10.2163 -1.2422,0 -8.0569,4.0305 -10.5328,7.1274 -2.4781,3.0989 0.9274,9.9156 -0.623,13.3173 -1.5464,3.4131 0.9333,6.2015 0.623,9.605 -0.3105,3.4073 -8.9883,7.12719 -13.6298,15.48679 -4.6493,8.3671 8.984,12.702 23.85,11.1536 14.8694,-1.5524 18.8938,1.5485 21.6844,-2.7865 2.7903,-4.3407 13.9402,-10.2203 17.6578,-15.4865 3.718,-5.26449 4.6434,-9.60729 1.238,-15.17829 -3.4075,-5.5826 -8.3652,-22.9264 -10.5327,-29.1261 -2.1676,-6.1899 -1.8551,-3.714 2.1676,-12.0792 4.0282,-8.3652 5.2661,-10.5327 5.2661,-15.7992 0,-5.2664 -4.3369,-20.7549 -8.6697,-23.8477 -4.3428,-3.1011 -5.2664,-16.1107 -12.0831,-26.6414 -6.8168,-10.5366 -6.8168,-15.183 -11.1537,-26.9518 -4.333,-11.7696 -0.6171,-24.7814 1.859,-40.2689 2.4779,-15.4887 -3.7161,-42.1349 -7.1213,-58.2426 -3.4094,-16.1066 2.4757,-32.5247 3.7158,-39.6479 1.2361,-7.1263 3.4056,-16.1077 3.4056,-19.5181 0,-3.4064 -1.2382,-13.6277 1.2418,-47.0838 2.478,-33.452 3.0969,-40.5803 -1.8589,-48.0123 -2.2366,-3.3529 -2.7686,-10.8679 -2.6818,-18.1069 0.087,0.1434 0.1683,0.2859 0.2592,0.4293 7.8907,12.5528 16.1392,23.6718 20.7985,29.4088 4.6631,5.7381 11.1219,11.476 11.1219,11.476 0,0 -6.459,5.38 -6.459,22.5922 0,17.22 -7.1727,55.2335 0.3619,83.2106 7.5327,27.9761 13.9836,57.0281 17.2151,76.3949 3.2275,19.3679 1.074,28.6891 1.074,31.9165 0,3.2275 2.5114,7.1768 -0.3561,20.8074 -2.8733,13.6259 -7.1708,30.1221 -0.7179,48.0538 6.459,17.933 9.6843,43.0367 11.8359,54.1567 2.1537,11.118 -1.4376,22.9542 -0.7218,28.6931 0.7218,5.739 -2.5096,12.55199 -7.1708,16.85519 -4.6613,4.3052 -10.0402,11.1238 -6.0989,12.5557 3.9512,1.4358 6.4587,1.7898 6.4587,1.7898 l 8.2487,2.5095 c 0,0 5.021,-1.7898 6.4567,1.4397 1.4379,3.2295 6.0972,0.3558 7.1748,-1.4397 1.0719,-1.7898 8.2448,-1.0679 8.2448,-10.7502 0,-9.6882 3.2313,-21.16419 0.7157,-34.07599 -2.5074,-12.9119 -2.5074,-46.9761 -1.0739,-51.6412 1.4337,-4.6632 1.4337,-30.4867 0.7198,-45.198 -0.7198,-14.7007 3.9435,-31.9168 3.9435,-61.6827 0,-29.7698 -2.5096,-62.4052 -2.5096,-69.5791 0,-7.1708 3.5854,-11.477 3.5854,-11.477 0,0 3.9473,20.8016 7.5326,34.4323 3.5835,13.6285 7.8868,49.1324 6.8129,67.7832 -1.0739,18.6498 -0.7158,32.2785 0,49.4954 0.7179,17.2172 0.7179,20.8046 -3.2294,26.1814 -3.9435,5.3812 -0.3522,8.2507 0,16.8513 0.3599,8.6085 -3.2255,28.3372 -2.8716,36.2257 0.3618,7.8947 1.4397,13.9896 2.8716,20.8085 1.4337,6.8069 6.8188,7.5227 7.1766,6.0909 0.358,-1.4318 3.9413,-2.5115 5.3792,-2.1475 1.4338,0.3557 4.3013,-3.2256 4.3013,-3.2256 0,0 3.2295,-3.5912 5.381,-7.1748 2.1516,-3.5874 3.2295,-4.661 3.2295,-12.1957 0,-7.533 -3.2295,-33.3564 -3.9493,-41.245 -0.7139,-7.8927 0,-11.4762 0,-16.1333 0,-1.691 0.9929,-5.3652 2.3555,-9.5737 1.7798,14.5078 5.476,29.1165 5.2012,36.928 -0.3362,9.2808 -1.9915,4.9717 -2.9904,10.6079 -0.9927,5.6381 2.3239,15.5952 4.6436,18.5795 2.3237,2.9822 5.3059,1.3251 6.3026,3.9769 0.9988,2.6541 -3.6469,7.6296 -3.9789,11.2765 -0.3344,3.6525 0,9.9572 11.6105,15.92359 11.6064,5.9724 12.2708,8.9547 19.5723,15.2572 7.2936,6.3027 25.5388,10.948 38.8025,7.2974 13.2699,-3.6467 9.9515,-9.6211 5.6423,-13.5999 -4.3132,-3.9869 -10.2855,-5.6443 -10.2855,-9.6232 0,-3.97709 -0.3323,-2.31769 -4.9738,-2.65199 -4.6434,-0.3263 -19.2362,-14.2585 -19.2362,-14.2585 l 0.3263,-0.6685 c -0.6606,-2.9862 8.296,1.3251 15.2631,5.9685 6.9613,4.6455 9.6154,1.3269 22.5546,5.9703 12.9355,4.64929 20.2311,3.6487 28.1927,-0.6626 7.9601,-4.3073 4.9756,-12.2727 -9.619,-17.9091 -14.5947,-5.646 -27.8645,-9.6229 -27.8645,-9.6229 l -7.6276,-8.6204 c 0,0 6.3027,-6.9673 6.635,-13.9364 0.3341,-6.9633 -5.9703,-12.6012 -8.9585,-13.6019 -2.9844,-0.9888 1.3308,-27.5244 6.3026,-43.1157 4.9735,-15.5876 6.6368,-22.8868 4.6473,-29.5179 -1.9915,-6.6326 0.9967,-7.9637 2.6521,-9.619 1.6592,-1.6561 1.6592,-1.6581 0.9948,-4.6443 -0.6626,-2.9822 0,-8.294 2.6517,-10.947 2.6542,-2.6479 4.9758,-4.9777 2.3258,-10.6138 -2.6559,-5.6392 2.65,-6.3027 2.65,-8.9564 0,-2.653 3.3182,-9.6172 6.3026,-14.2605 2.9862,-4.6434 6.3047,-12.2722 14.5968,-30.8497 8.296,-18.5759 13.9302,-42.4583 14.2626,-46.7675 0.332,-4.316 2.3214,-4.9766 4.3112,-7.9619 1.9065,-2.8596 1.9952,-6.6191 2.8734,-8.9733 0.3243,1.2815 1.0759,5.1616 -0.1344,10.4022 -1.4852,6.433 3.9612,17.8231 6.9374,22.7741 2.9684,4.9547 13.8589,-4.9512 13.8589,-8.9122 0,-3.9613 3.4688,-3.465 3.4688,-3.465 l -4.4614,29.2121 26.2507,4.4586 c 0,0 4.9478,34.1672 5.4482,46.0525 0.4924,11.8815 -0.5004,53.4772 0,81.2085 0.4924,27.7318 13.865,57.4414 19.8037,74.769 5.9427,17.3318 -3.4688,32.6841 -8.9149,41.09889 -5.4445,8.4224 -8.4148,8.4224 -3.4609,17.3356 4.95,8.915 33.6688,0 33.6688,0 0,0 2.4738,0.9907 2.9703,3.9611 0.4945,2.9744 19.8057,1.9775 30.6982,-0.4924 10.8967,-2.4779 5.9467,-11.387 5.9467,-19.8115 0,-8.41089 -2.9664,-16.83539 -3.9633,-22.27969 -0.9906,-5.4523 0.9967,-16.8395 0.9967,-16.8395 0,0 20.302,-47.5376 23.7628,-74.7721 3.261,-25.6566 0.8187,-75.0256 0.9354,-89.3561 4.064,2.4601 7.7028,2.7667 16.2203,6.5538 11.5651,5.1359 11.9962,0.4281 11.9962,0.4281 0,0 0,8.5641 1.7087,11.1352 1.7164,2.5678 -1.7126,27.4094 -3.4272,35.1161 -1.7126,7.7097 -10.7067,15.4194 -12.8447,20.129 -2.1456,4.7097 -6.4292,44.1105 -6.8562,60.8076 -0.4252,16.7089 -4.7107,33.8368 -4.7107,44.5474 0,10.703 -2.5708,8.5612 -3.425,11.9844 -0.8566,3.4293 5.1377,14.13399 15.4211,27.41149 10.2738,13.2756 31.254,5.9979 33.8269,-2.9961 2.5708,-9.0021 -13.7048,-23.98439 -14.9843,-31.27189 -1.2834,-7.2736 -0.8623,-2.5629 0,-7.2736 0.8523,-4.7146 -0.4291,-4.2836 -3.4272,-7.2816 -2.9999,-2.9958 15.4194,-61.6677 17.1301,-70.6597 1.7104,-8.9931 7.7068,-23.9815 11.5591,-29.5504 3.8544,-5.5688 12.8503,-38.5455 12.8503,-38.5455 0,0 3.8544,-0.8562 3.8544,-6.4213 0,-5.57 3.8545,-31.6922 3.8545,-31.6922 l 2.1436,-5.5688 10.2797,0.4282 c 0,0 0,6.4233 -0.4312,23.1243 -0.4271,16.7018 1.7125,26.9793 5.1378,38.9756 3.4272,11.9901 3.0001,15.8426 1.2875,23.5531 -1.7166,7.7079 0.8602,35.9766 0.8602,53.963 0,17.9863 -0.8602,41.5397 -0.8602,48.3921 0,6.8463 1.7126,20.1222 2.9941,35.97249 1.2893,15.8466 21.8466,14.1301 29.9805,7.7048 8.132,-6.4252 -1.2854,-29.97449 -5.998,-35.54749 -4.7068,-5.567 -4.2837,-16.2657 -2.9941,-27.4056 1.2834,-11.13 14.132,-66.3752 14.9922,-72.8006 0.8525,-6.4222 -0.8602,-11.5649 -3.4331,-25.6959 -2.5669,-14.1321 -2.5669,-28.6931 -1.7087,-32.9764 0.8524,-4.2805 6.8466,-5.1359 4.7087,-10.2786 -2.1417,-5.1378 4.2816,-11.1299 5.1437,-18.4156 0.8524,-7.2805 -3.858,-2.9979 -1.7145,-8.1367 2.1398,-5.136 12.4153,-3.8514 19.2678,-5.9942 6.8483,-2.1417 3.8524,-2.5718 4.2816,-5.1419 0.433,-2.5669 -5.9901,-16.6979 -5.9901,-16.6979 l 3.4923,-8.9359 c 2.1675,1.8066 4.9893,2.919 5.9269,5.7212 1.7443,5.2447 -3.8505,12.5836 -3.8505,12.5836 l 11.5374,5.9446 c 0,0 0.3461,4.8947 1.7482,16.7812 1.3964,11.8863 4.1945,42.6509 2.7965,63.2762 -1.3964,20.6264 6.6387,38.8027 5.5906,47.1976 -1.0521,8.389 -0.35,38.1045 -1.7443,47.1953 -1.4001,9.0873 -9.0948,20.6226 -13.6376,29.7157 -4.5444,9.0891 -12.9355,23.07079 -16.4319,37.40229 -3.4943,14.3416 21.3224,7.3429 26.571,3.5005 5.2427,-3.8466 9.0891,-12.9377 8.043,-17.4822 -1.0521,-4.54649 7.6888,-19.92439 7.6888,-19.92439 0.6943,-3.1481 5.2487,-0.3478 5.9447,3.4945 0.7062,3.8485 0,4.8967 -2.4423,15.73189 -2.4542,10.8413 13.6315,14.3336 24.8208,15.3839 11.1833,1.0479 5.2369,-25.16919 2.0923,-33.21189 -3.1442,-8.0352 0,-16.0801 -2.4423,-20.2825 -2.4462,-4.1906 -4.8986,-9.0831 -9.4409,-21.3206 -4.5448,-12.2334 -0.3502,-11.5372 0,-19.9243 0.3461,-8.391 1.7441,-13.2836 6.2926,-26.9192 4.5426,-13.6317 5.9427,-31.4666 4.8906,-41.2548 -1.0482,-9.7902 2.7983,-20.9733 3.8446,-25.5219 1.0541,-4.5447 14.3336,-34.6089 17.4819,-39.8526 0.965,-1.6069 2.0607,-3.3443 3.1581,-4.862 0,0.3254 0,0.6536 0,0.9779 0,16.6268 0,36.9941 0,36.9941 l 6.6506,1.244 c 0,0 1.6633,12.0545 3.3282,17.4573 1.6592,5.4037 1.2421,21.1989 1.2421,30.3425 0,9.1454 -4.157,15.3788 -2.0725,37.8246 2.0725,22.4458 10.8076,46.1375 11.2229,53.2015 0.4133,7.0679 4.1548,13.3013 4.1548,22.4476 0,9.1463 -0.8303,19.11559 2.4958,33.24769 3.3245,14.1339 25.7722,4.1588 26.1854,0.4189 0,4.9838 22.4437,7.8949 23.2764,-0.8303 0.2452,-2.6006 0.6388,-5.5869 1.0265,-8.7036 0.01,0.5894 0.028,1.1946 0.057,1.8274 0.5004,10.776 7.0127,7.5189 15.7834,12.7772 8.7666,5.2643 12.0217,-1.754 11.7725,-8.2623 -0.249,-6.5142 -2.7546,-15.5341 -3.5062,-21.79709 -0.7515,-6.269 1.5031,-1.505 2.7568,-5.7628 1.2539,-4.2578 0.7494,-15.283 0.7494,-15.283 0,0 7.7642,-1.7582 5.2644,-4.7621 -2.5057,-3.012 0.2493,-5.0132 1.0007,-13.2815 0.7516,-8.2623 8.5195,-24.55 10.774,-33.8171 2.2524,-9.271 12.5201,-23.3051 15.7813,-40.8386 3.2611,-17.5392 5.7588,-20.5422 8.5155,-38.3287 2.7548,-17.7846 6.5142,-33.0706 7.5249,-32.3202 0.9967,0.7495 4.7539,38.5833 4.2556,46.8495 -0.5062,8.2684 -1.0065,28.0632 0.2434,40.0901 1.2577,12.0198 1.2577,36.3206 1.2577,43.3372 0,7.0123 1.7522,20.7924 1.2517,32.5671 -0.4983,11.7744 0,9.524 0,12.526 0,3.0081 0.5005,4.7601 3.0062,11.2784 2.5076,6.51419 -0.2452,15.28089 -0.2452,15.28089 0,0 7.0105,1.2517 12.5221,6.2611 5.5155,5.0131 11.025,8.0231 23.8025,6.0159 1.7579,-0.2771 2.9407,-0.7712 3.6882,-1.422 5.1279,-0.2631 12.0021,-3.9769 13.9561,-7.3961 3.0393,-5.3099 -1.0067,-16.18469 -1.0067,-16.18469 h 5.0527 c 0,0 -2.021,-8.6007 -1.7678,-20.4861 0.2511,-11.8855 -11.1281,-13.1433 -11.1281,-13.1433 0,0 1.7698,-14.9208 4.3033,-21.2413 2.5271,-6.3262 2.7764,-13.4061 3.7908,-16.9421 1.0126,-3.5437 -1.0144,-18.716 -1.0144,-18.716 0,0 6.5775,-3.2887 6.5775,-7.8334 0,-4.5533 3.0319,-21.7495 4.0443,-30.5984 1.0126,-8.8568 1.2656,-14.923 4.2992,-22.5112 3.0337,-7.5829 4.8036,-6.8246 4.8036,-6.8246 0,0 -0.2531,-5.3118 0.5063,-10.6207 0.7595,-5.31 5.0568,-20.9904 6.3185,-22.2549 1.2656,-1.2628 0.7594,0.7612 2.027,4.0471 1.2617,3.2877 3.5399,31.8622 4.5504,56.3884 4.3014,23.0164 -0.2532,30.8535 -0.2532,30.8535 l 6.8287,2.2744 c 0,0 0.7573,11.1279 0.7573,21.7476 0,10.6257 1.264,19.2185 3.7911,28.5765 2.5294,9.356 1.2677,17.1953 -1.2616,23.2646 -2.5295,6.0691 -2.0232,6.3185 -3.797,8.5986 -1.77,2.2742 -0.7534,5.0585 -1.5149,12.3936 -0.7595,7.32899 -6.8248,14.91499 -6.5757,23.76679 0.2532,8.8517 6.3206,7.3351 16.691,2.2742 10.3727,-5.0547 7.5861,-11.6302 8.3455,-20.48 0.7577,-8.85179 1.5189,-13.15319 1.0126,-18.71609 -0.5062,-5.5573 1.0146,-11.124 1.2657,-22.5013 1.7681,-11.3811 7.0818,-42.9929 7.0818,-42.9929 l 3.0258,-1.2599 -1.0085,-17.9546 5.8162,-0.5103 c 0,0 -1.2617,-28.5734 -0.2551,-41.7234 1.0125,-13.1509 2.0229,-28.5743 2.2802,-35.6542 0.2511,-7.0839 -1.2677,-22.0019 -4.05,-26.8083 -2.7787,-4.8036 -3.54,-18.457 0.7633,-24.7766 4.2974,-6.3243 -4.5524,-10.6245 -5.3116,-13.9094 -0.7577,-3.2877 -2.5277,-7.334 1.5166,-9.102 4.0461,-1.772 2.0229,-4.5555 2.0229,-6.3255 -3e-4,-1.7692 1.7718,-1.519 1.7718,-1.519 z m -1315.81026,-62.075 c -1.3439,16.8245 -2.912,28.9374 -5.8279,33.8705 -2.9152,4.935 -3.1435,7.405 -2.6907,12.3391 0.4451,4.9334 -1.7966,16.3746 -1.7966,16.3746 0,0 0.4469,19.9649 0,17.4978 -0.448,-2.468 -5.8369,-11.4434 -5.8369,-11.4434 l 0.2314,-5.3842 -1.7997,-1.1193 c 0,0 -1.7919,-3.1395 -1.7919,-10.7671 0,-7.6276 5.834,-40.3768 9.4203,-55.6279 3.5923,-15.2542 6.2789,-36.3394 6.2789,-36.3394 0,0 2.019,3.8118 2.6964,5.1574 0.6709,1.3471 2.4655,18.6173 1.1167,35.4419 z m 92.8702,-51.3673 c 0.2246,-7.1797 2.4651,-4.7097 6.7279,-16.151 0.4053,-1.0897 0.6309,-2.1318 0.7763,-3.1494 -0.9285,9.7346 -2.2723,20.1329 -4.1915,28.2383 -0.7525,3.179 -1.2982,6.1956 -1.7126,9.1324 -1.1165,-7.0234 -1.7374,-13.6809 -1.6001,-18.0703 z m 263.97566,75.4011 c -3.4706,2.1713 -6.9453,0.8651 -7.3785,-13.4637 -0.437,-14.3305 -3.9137,-56.0215 -3.9137,-77.7346 0,-21.717 1.7401,-34.3105 1.7401,-34.3105 0,0 3.9078,8.6857 3.9078,31.703 0,23.0174 0,43.4302 1.7383,52.5488 1.7367,9.1209 7.3826,39.0846 3.906,41.257 z m 39.117,-128.0746 c -2.1516,-0.7158 -3.2294,-3.5864 -1.4375,-7.1718 1.7955,-3.5864 5.3849,-22.5961 7.5345,-20.0844 0,0 2.5095,18.2898 3.9474,26.5403 1.4337,8.2476 1.7917,14.7026 1.7917,14.7026 0,0 -9.6825,-13.2707 -11.8361,-13.9867 z m 121.7335,8.7608 c -2.9979,26.2943 -8.9901,34.2828 -8.9901,34.2828 0,0 2.7885,-34.608 5.8973,-53.6969 1.3092,-4.7056 2.5828,-8.0676 3.609,-8.8795 0.7298,3.5775 1.3902,11.5394 -0.5162,28.2936 z m 124.3519,149.7036 c -5.9429,1.9835 -4.4576,-4.9499 0,-16.8323 0,0 5.9386,14.8539 0,16.8323 z m 12.3778,-36.6428 c 0,0 -0.9889,-8.4149 0,-16.8324 0.9906,-8.4207 4.9498,-11.392 5.9427,-2.9714 0.9886,8.4146 -1.9817,21.2927 -5.9427,19.8038 z m 83.6862,172.8208 c -0.9886,23.2704 -4.9501,54.9656 -4.9501,66.3526 0,11.391 -2.9684,27.2395 -2.9684,27.2395 0,0 -3.967,34.1611 -7.4338,28.2203 -3.4626,-5.9387 -4.9519,-31.691 -4.9519,-50.9984 0,-19.3171 0.9948,-56.953 0,-63.8806 -0.9888,-6.9355 -5.4424,-17.8312 -1.4811,-38.1313 3.9589,-20.305 1.9775,-51.4998 1.9775,-56.4526 0,-4.949 2.9723,-17.8222 2.9723,-17.8222 h 12.8721 c 0,0 1.4913,46.0525 1.4913,55.9552 3e-4,9.903 3.461,26.2439 2.4721,49.5175 z m 60.6827,-294.7204 c -1.3348,12.5419 -2.9684,26.923 -5.4265,38.6166 -0.9453,-24.4611 -4.2518,-63.2903 -4.2518,-63.2903 0,0 4.6612,11.909 9.6783,24.6737 z m 0.4391,121.3378 c -1.3627,2.2397 -2.9525,4.9391 -4.6177,7.9342 -0.018,-0.4767 -0.034,-0.9521 -0.051,-1.4289 -0.8088,-20.9161 -0.6288,-47.064 -0.803,-68.616 5.207,11.037 17.8972,15.8564 17.8972,15.8564 0,0 -6.4308,36.4008 -12.4251,46.2543 z m 151.2553,-40.2116 c 1.4219,3.3133 0,7.1024 -0.9474,9.4697 -0.9432,2.3633 -2.8398,12.3045 -2.8398,12.3045 h -4.2579 c 0,0 5.2091,-9.4697 -0.4725,-15.1443 -0.024,-0.0238 -0.042,-0.0454 -0.065,-0.0682 0.2195,-8.397 0.4232,-19.9146 0.5061,-36.1595 l 2.3989,1.2003 c -10e-5,0 4.2577,25.0869 5.6778,28.3975 z m 102.6553,-78.2756 c 0,0 1.6671,8.7271 3.3264,11.6381 1.6632,2.911 1.2457,5.8161 1.2457,9.5599 0,0.8314 -0.619,1.6839 -1.5859,2.5303 -1.8611,-6.4264 -4.1451,-14.576 -6.979,-25.1849 1.8611,1.0927 3.9928,1.4566 3.9928,1.4566 z m -75.0124,402.131 c 0,0 -5.5927,0.7001 -3.8464,-8.0409 1.7441,-8.7369 3.4944,-17.48 3.4944,-17.48 0,0 4.1984,22.3787 0.352,25.5209 z m 113.5875,-16.6691 c -0.7039,3.526 -3.53,8.4679 -3.53,15.8722 0,7.4003 -3.522,4.5822 -3.876,12.3441 -0.3521,7.7523 -4.2322,22.56459 -4.2322,24.33059 0,1.7622 -2.1119,7.4042 -2.4659,0.702 -0.354,-6.7002 -4.2322,-17.28029 -4.2322,-19.74449 0,-2.4661 0,-3.526 -2.8219,-11.64 -2.8181,-8.1082 -9.5203,-17.9844 -7.4044,-31.7328 2.1143,-13.7522 1.0603,-26.0945 0.7021,-52.188 -0.3481,-26.0975 4.2382,-33.8506 4.2382,-41.9598 0,-8.114 1.054,-33.1506 1.054,-33.1506 l 13.7523,-0.352 c 0,0 -1.764,27.8557 2.468,38.0846 4.2322,10.2262 2.818,16.2163 2.818,21.8625 0,5.6412 -0.7019,32.4387 -0.3459,40.9045 0.3459,8.4664 4.5838,33.145 3.8759,36.6672 z m 13.2717,-264.5858 c 0.4211,-4.6652 5.0905,-8.91 5.0905,-18.2404 0,-9.3314 0,-27.998 5.9407,-28.4212 0,0 1.3943,1.3359 3.5834,3.4786 -0.1603,0.365 -0.3163,0.712 -0.4764,1.0867 -6.7615,15.7823 -9.269,28.5587 -9.269,28.5587 l 8.7705,2.7567 c 0,0 1.0027,19.0422 1.0027,27.5591 0,3.6683 -0.605,8.6896 -1.2933,14.5729 -6.7083,-2.381 -13.7326,-27.0953 -13.3491,-31.3511 z m 24.914,186.3874 c -2.0033,13.0284 -12.5262,49.3569 -16.0345,58.1238 -3.5062,8.7687 -3.0059,22.0482 -2.5034,23.7986 0.5023,1.7521 -1.0028,2.7545 -1.0028,2.7545 0,0 -1.756,4.0046 -2.0052,5.5137 -0.2532,1.5049 -1.0046,10.5189 -0.7534,15.028 0.2531,4.5166 2.2545,7.0205 1.0027,8.2701 -0.6349,0.6348 -1.5881,2.0449 -2.3101,4.6732 0.285,-4.2598 0.2928,-8.3871 -0.3696,-11.8557 -1.6572,-8.7311 -0.4094,-21.6134 -0.4094,-21.6134 0,0 2.4899,-30.3423 8.7253,-43.6437 6.2391,-13.3034 0.415,-46.1394 -0.8308,-50.7106 -1.2419,-4.5714 2.4899,-48.6324 2.4899,-48.6324 l 1.5862,-0.7929 c 0.5912,1.0294 1.224,2.0182 1.8926,2.9675 4.76,6.7613 9.0177,3.5072 9.0177,3.5072 0,0 3.5061,39.5816 1.5048,52.6121 z m -1.2518,-93.9501 c -0.2493,-16.2835 3.7556,-36.3306 3.7556,-36.3306 0,0 3.5138,38.8331 -3.7556,36.3306 z m 95.2495,-93.9916 c 0.7395,7.6275 1.1666,15.8071 1.4,23.6809 -2.8677,-8.2903 -4.9282,-14.2675 -1.4,-23.6809 z m -3.8821,177.4879 c -0.5677,6.8614 -1.1056,12.6212 -1.3112,13.957 -0.198,1.2935 -0.4036,1.9925 -0.726,2.4809 0.032,-0.2985 0.065,-0.617 0.1088,-0.9748 0.2928,-2.4258 0.9988,-8.3891 1.9284,-15.4631 z m 0.075,133.46459 c -3.7555,-4.0125 -6.5142,-9.01769 -6.01,-10.02039 0.5004,-1.0046 -0.5042,-13.7841 -1.0026,-21.2988 -0.5024,-7.5129 2.7546,-22.2976 4.76,-31.3134 0.6526,-2.9387 0.9551,-7.4301 1.0739,-12.4827 0.028,0.7356 0.043,1.3784 0.043,1.8884 0,6.3187 4.3014,46.019 4.3014,49.5588 0,3.5419 0.7555,15.6805 3.7889,23.26659 1.4199,3.5536 0.8427,5.4404 0.01,7.1984 -2.6956,-2.818 -5.6402,-5.3848 -6.9651,-6.7969 z"
   id="path4651"
   style="fill:#000080" />
<text
   xml:space="preserve"
   style="font-size:100px;fill:#758949;fill-opacity:1"
   x="598.13641"
   y="1104.1227"
   id="text5286"><tspan
     sodipodi:role="line"
     id="tspan5284"
     x="598.13641"
     y="1104.1227"
     style="font-size:100px;fill:#758949;fill-opacity:1">Explore, Challenge, Lead !...</tspan></text><g
   id="g5460-7-8-8"
   transform="matrix(-0.4748818,0,0,0.38333068,-182.5159,229.46432)" /><text
   xml:space="preserve"
   style="font-size:204.579px;fill:#758949;fill-opacity:1;stroke-width:2.04579"
   x="969.26282"
   y="934.48157"
   id="text564"
   transform="scale(1.0671323,0.93709094)"><tspan
     sodipodi:role="line"
     id="tspan562"
     x="969.26282"
     y="934.48157"
     style="font-style:normal;font-variant:normal;font-weight:bold;font-stretch:normal;font-family:monospace;-inkscape-font-specification:'monospace Bold';stroke-width:2.04579;fill:#758949;fill-opacity:1">PSD</tspan></text><g
   id="g5460-7-8-8-3"
   transform="matrix(-0.81047898,0,0,0.72472147,-1193.8369,-145.23127)"
   style="fill:url(#Camouflage)" /><path
   id="path6668-2-3-8-3-9-7-1-4"
   style="fill:url(#pattern9633);stroke:#000000;stroke-width:4.48032;stroke-linecap:round;stroke-linejoin:round"
   sodipodi:nodetypes="ccccc"
   inkscape:connector-curvature="0"
   d="m 1225.9318,562.37415 0.3208,-86.27129 177.5536,-44.71437 -62.4058,105.30092 -115.4718,25.68627 z" /><path
   id="path6668-2-1-7-4-8-9-8-9-8-3"
   style="fill:url(#pattern9635);stroke:#000000;stroke-width:4.48032;stroke-linecap:round;stroke-linejoin:round"
   sodipodi:nodetypes="ccccccc"
   inkscape:connector-curvature="0"
   d="m 1301.1172,546.60977 -7.1085,87.65789 -39.3236,64.5034 -28.5885,-135.16522 -1.1748,-87.90699 5.8608,2.62332 70.3335,68.28807 z" /><path
   id="path6640-8-6-5-8"
   style="fill:url(#pattern9637);stroke:#000000;stroke-width:3.08022;stroke-linecap:round;stroke-linejoin:round"
   sodipodi:nodetypes="cccc"
   inkscape:connector-curvature="0"
   d="m 1341.414,536.69246 -99.2228,-64.28619 -16.9138,92.36139 z" /><path
   id="path4743-3-1-5"
   style="fill:url(#pattern9639);stroke:#000000;stroke-width:3.08022;stroke-linecap:round;stroke-linejoin:round"
   sodipodi:nodetypes="cccc"
   inkscape:connector-curvature="0"
   d="m 1265.5574,487.54646 35.4191,58.92054 -6.9594,87.8037 z" /><path
   id="path6640-8-4-4-6-1"
   style="fill:url(#pattern9641);stroke:#000000;stroke-width:3.08022;stroke-linecap:round;stroke-linejoin:round"
   sodipodi:nodetypes="ccccc"
   inkscape:connector-curvature="0"
   d="m 1242.1822,472.40475 -6.6477,12.7415 -11.3636,1.25739 -0.322,-9.69528 18.3336,-4.30361 z" /><path
   id="path6668-2-3-8-3-9-7-1-4-5"
   style="fill:url(#pattern9643);stroke:#000000;stroke-width:4.48032;stroke-linecap:round;stroke-linejoin:round"
   sodipodi:nodetypes="ccccc"
   inkscape:connector-curvature="0"
   d="m 1224.5507,561.37182 1.1091,-86.26219 -176.7792,-48.78001 60.6492,106.71184 115.0239,28.33036 z" /><path
   id="path6668-2-1-7-4-8-9-8-9-8-3-0"
   style="fill:url(#pattern9645);stroke:#000000;stroke-width:4.48032;stroke-linecap:round;stroke-linejoin:round"
   sodipodi:nodetypes="ccccccc"
   inkscape:connector-curvature="0"
   d="m 1149.6493,543.87608 5.6543,87.80522 38.2471,65.39334 30.8228,-134.4848 2.6317,-87.86448 -5.9032,2.48828 -71.4526,66.66153 z" /><path
   id="path6640-8-6-5-8-1"
   style="fill:url(#pattern9647);stroke:#000000;stroke-width:3.08022;stroke-linecap:round;stroke-linejoin:round"
   sodipodi:nodetypes="cccc"
   inkscape:connector-curvature="0"
   d="m 1109.5333,533.04751 100.2695,-61.99746 15.3791,92.73198 z" /><path
   id="path4743-3-1-5-2"
   style="fill:url(#pattern9649);stroke:#000000;stroke-width:3.08022;stroke-linecap:round;stroke-linejoin:round"
   sodipodi:nodetypes="cccc"
   inkscape:connector-curvature="0"
   d="m 1186.1771,485.64805 -35.8295,58.4285 6.0076,89.43328 z" /><path
   id="path6640-8-4-4-6-1-8"
   style="fill:url(#pattern9651);stroke:#000000;stroke-width:3.08022;stroke-linecap:round;stroke-linejoin:round"
   sodipodi:nodetypes="ccccc"
   inkscape:connector-curvature="0"
   d="m 1209.7976,471.0379 6.4351,12.89156 11.3408,1.51784 0.4825,-9.686 -18.2588,-4.7234 z" /><path
   id="path6640-8-4-0-2-1"
   style="fill:url(#pattern9653);stroke:#000000;stroke-width:3.08022;stroke-linecap:round;stroke-linejoin:round"
   sodipodi:nodetypes="ccccc"
   inkscape:connector-curvature="0"
   d="m 1216.1351,483.71928 10.9385,-21.09817 8.1019,22.89179 -8.8361,-3.27424 z" /><path
   id="path5800"
   style="fill:url(#pattern9655);stroke:#000000;stroke-width:1.12008;stroke-linecap:round"
   inkscape:connector-curvature="0"
   d="m 1226.3964,477.74006 v -5.67459" /></g>
</svg>
